<?xml version="1.0" encoding="utf-8"?>
<!-- Generator: Adobe Illustrator 27.5.0, SVG Export Plug-In . SVG Version: 6.00 Build 0)  -->
<svg version="1.1" xmlns="http://www.w3.org/2000/svg" xmlns:xlink="http://www.w3.org/1999/xlink" x="0px" y="0px"
	 viewBox="0 0 500 500" style="enable-background:new 0 0 500 500;" xml:space="preserve">
<g id="Background_Complete">
	<g>
		<rect y="382.398" style="fill:#EBEBEB;" width="500" height="0.25"/>
		<rect x="416.779" y="398.494" style="fill:#EBEBEB;" width="33.122" height="0.25"/>
		<rect x="322.527" y="401.208" style="fill:#EBEBEB;" width="8.693" height="0.25"/>
		<rect x="396.586" y="389.208" style="fill:#EBEBEB;" width="19.192" height="0.25"/>
		<rect x="52.459" y="390.888" style="fill:#EBEBEB;" width="43.193" height="0.25"/>
		<rect x="104.556" y="390.888" style="fill:#EBEBEB;" width="6.333" height="0.25"/>
		<rect x="131.471" y="395.111" style="fill:#EBEBEB;" width="93.676" height="0.25"/>
		<path style="fill:#EBEBEB;" d="M237.014,337.8H43.915c-3.147,0-5.708-2.561-5.708-5.708V60.66c0-3.147,2.561-5.708,5.708-5.708
			h193.099c3.146,0,5.707,2.561,5.707,5.708v271.432C242.721,335.239,240.16,337.8,237.014,337.8z M43.915,55.203
			c-3.01,0-5.458,2.448-5.458,5.458v271.432c0,3.01,2.448,5.458,5.458,5.458h193.099c3.009,0,5.457-2.448,5.457-5.458V60.66
			c0-3.009-2.448-5.458-5.457-5.458H43.915z"/>
		<path style="fill:#EBEBEB;" d="M453.31,337.8H260.212c-3.147,0-5.707-2.561-5.707-5.708V60.66c0-3.147,2.561-5.708,5.707-5.708
			H453.31c3.148,0,5.708,2.561,5.708,5.708v271.432C459.019,335.239,456.458,337.8,453.31,337.8z M260.212,55.203
			c-3.009,0-5.457,2.448-5.457,5.458v271.432c0,3.01,2.448,5.458,5.457,5.458H453.31c3.01,0,5.458-2.448,5.458-5.458V60.66
			c0-3.009-2.448-5.458-5.458-5.458H260.212z"/>
	</g>
	<g>
		<g>
			<path style="fill:#F5F5F5;" d="M179.44,345.82v36.7H80.56v-36.7h15.02v-54.93c0,0,14.34-22.81,16.05-38.63
				c0.86-7.9-2.31-22.59-6.12-37.4c-3.8-14.81-8.25-29.75-9.92-38.13c-3.34-16.76,22.36-17.4,22.36-17.4s-10.98-20.37-5.81-30.99
				c5.18-10.61,17.15-13.21,26.11-5.83c2.65,2.18,4.08,6.28,4.78,10.98c1.67,11.18-0.82,25.74-0.82,25.74s7.67-0.25,14.35,1.44
				c2.2,0.55,4.3,1.32,5.98,2.37c14.48,9.08-13.8,89.37-1.08,104.29c10.3,12.07,3.53,59.46,3,78.49H179.44z"/>
			<path style="fill:#FAFAFA;" d="M130,219.65c-25.77,28.4-0.6,32.91,0,36.2c0.41,2.24-20.9,37.25-34.42,59.15v-24.11
				c0,0,14.34-22.81,16.05-38.63c0.86-7.9-2.31-22.59-6.12-37.4c4.58-6.02,8.4-11.63,8.92-14.21c1.41-6.92-7.63-19.93-4.69-24.77
				c1.79-2.96,19.68-25.41,33.29-42.39c1.67,11.18-0.82,25.74-0.82,25.74s7.67-0.25,14.35,1.44c-9.24,13.57-17.78,27.41-16.14,30.11
				C143.79,196.36,155.77,191.25,130,219.65z"/>
		</g>
		<g>
			<g>
				<path style="fill:#E0E0E0;" d="M125.277,267.99c-9.805,0-18.699-0.907-26.253-2.137c-23.741-3.864-39.307-11.459-39.958-11.78
					l2.655-5.381c0.61,0.3,61.669,29.662,123.783-0.017l2.587,5.414C165.879,264.702,143.935,267.99,125.277,267.99z"/>
			</g>
			<g>
				<path style="fill:#E0E0E0;" d="M252.249,267.99c-9.805,0-18.699-0.907-26.253-2.137c-23.741-3.864-39.307-11.459-39.958-11.78
					l2.655-5.381c0.61,0.3,61.669,29.662,123.783-0.017l2.587,5.414C292.85,264.702,270.907,267.99,252.249,267.99z"/>
			</g>
			<g>
				<path style="fill:#E0E0E0;" d="M377.662,267.99c-9.805,0-18.699-0.907-26.253-2.137c-23.741-3.864-39.307-11.459-39.957-11.78
					l2.655-5.381c0.61,0.3,61.669,29.662,123.783-0.017l2.587,5.414C418.264,264.702,396.32,267.99,377.662,267.99z"/>
			</g>
			<g>
				<g>
					<rect x="55.971" y="243.382" style="fill:#F0F0F0;" width="8.847" height="139.141"/>
				</g>
				<g>
					<polygon style="fill:#E0E0E0;" points="74.154,381.341 64.819,378.341 55.971,378.341 46.636,381.341 46.636,382.523 
						74.154,382.523 					"/>
				</g>
			</g>
			<g>
				<g>
					<rect x="182.375" y="243.382" style="fill:#F0F0F0;" width="8.847" height="139.141"/>
				</g>
				<g>
					<polygon style="fill:#E0E0E0;" points="200.557,381.341 191.222,378.341 182.375,378.341 173.039,381.341 173.039,382.523 
						200.557,382.523 					"/>
				</g>
			</g>
			<g>
				<g>
					<rect x="308.778" y="243.382" style="fill:#F0F0F0;" width="8.847" height="139.141"/>
				</g>
				<g>
					<polygon style="fill:#E0E0E0;" points="326.961,381.341 317.625,378.341 308.778,378.341 299.443,381.341 299.443,382.523 
						326.961,382.523 					"/>
				</g>
			</g>
			<g>
				<g>
					<rect x="435.181" y="243.382" style="fill:#F0F0F0;" width="8.847" height="139.141"/>
				</g>
				<g>
					<polygon style="fill:#E0E0E0;" points="453.364,381.341 444.029,378.341 435.181,378.341 425.846,381.341 425.846,382.523 
						453.364,382.523 					"/>
				</g>
			</g>
		</g>
		<g>
			<path style="fill:#EBEBEB;" d="M208.557,130.292h-2.312l0.86-0.888c0.245-0.253,0.239-0.658-0.014-0.904
				c-0.253-0.246-0.658-0.24-0.904,0.014l-1.722,1.777h-1.112l1.885-2.399c0.218-0.278,0.17-0.68-0.108-0.898
				c-0.277-0.218-0.68-0.17-0.898,0.108l-2.506,3.189h-5.864l4.186-4.186l4.198-0.614c0.35-0.051,0.591-0.376,0.54-0.725
				c-0.051-0.349-0.378-0.59-0.725-0.54l-2.5,0.366l0.404-0.404l2.623-0.484c0.347-0.064,0.576-0.397,0.513-0.745
				c-0.064-0.348-0.397-0.574-0.745-0.513l-0.796,0.147l1.248-1.248c0.25-0.25,0.25-0.654,0-0.904c-0.25-0.25-0.654-0.25-0.904,0
				l-1.635,1.635l-0.019-1.236c-0.005-0.353-0.312-0.63-0.649-0.629c-0.353,0.005-0.635,0.296-0.629,0.649l0.013,0.824
				c-0.083-0.186-0.242-0.336-0.457-0.376c-0.347-0.066-0.681,0.164-0.745,0.512l-0.628,3.372l-4.226,4.226v-5.804l3.494-2.506
				c0.287-0.206,0.353-0.605,0.147-0.892c-0.206-0.287-0.605-0.353-0.892-0.147l-2.749,1.972v-1.253l1.512-2.196
				c0.2-0.291,0.127-0.689-0.164-0.889c-0.29-0.2-0.689-0.128-0.889,0.164l-0.459,0.667v-1.766c0-0.353-0.286-0.639-0.639-0.639
				c-0.353,0-0.639,0.286-0.639,0.639v2.311l-0.887-0.86c-0.253-0.245-0.658-0.239-0.904,0.014
				c-0.245,0.254-0.239,0.658,0.014,0.904l1.777,1.722v1.111l-2.398-1.885c-0.278-0.218-0.68-0.17-0.898,0.108
				c-0.218,0.278-0.17,0.679,0.108,0.898l3.188,2.506v5.717l-4.24-4.24l-0.39-4.541c-0.03-0.352-0.347-0.615-0.691-0.582
				c-0.352,0.03-0.613,0.34-0.582,0.691l0.26,3.028l-0.911-0.911l-0.106-2.654c-0.014-0.353-0.321-0.619-0.664-0.613
				c-0.353,0.014-0.628,0.312-0.613,0.664l0.051,1.271l-0.985-0.986c-0.25-0.25-0.654-0.25-0.904,0c-0.25,0.25-0.25,0.654,0,0.904
				l0.801,0.801l-0.781-0.106c-0.353-0.048-0.672,0.197-0.72,0.547c-0.048,0.35,0.198,0.672,0.547,0.72l2.446,0.332l1.065,1.065
				l-2.876-0.476c-0.347-0.057-0.677,0.178-0.735,0.526c-0.058,0.348,0.178,0.677,0.526,0.735l4.563,0.756
				c0.023,0.004,0.046,0.004,0.069,0.006l4.04,4.04h-6.068l-3.137-3.239c-0.246-0.254-0.65-0.26-0.904-0.014
				c-0.254,0.246-0.26,0.65-0.014,0.904l2.275,2.349h-1.566l-1.952-1.802c-0.258-0.239-0.664-0.224-0.903,0.036
				c-0.24,0.259-0.223,0.664,0.036,0.903l0.935,0.863h-1.395c-0.353,0-0.639,0.286-0.639,0.639c0,0.353,0.286,0.639,0.639,0.639
				h1.133l-0.627,0.477c-0.281,0.214-0.336,0.615-0.122,0.896c0.126,0.165,0.316,0.252,0.509,0.252c0.135,0,0.271-0.042,0.387-0.131
				l1.964-1.494h1.944l-2.527,2.683c-0.242,0.257-0.23,0.662,0.027,0.904c0.124,0.117,0.281,0.174,0.438,0.174
				c0.17,0,0.34-0.067,0.465-0.201l3.352-3.559h5.707l-4.315,4.315l-4.156,0.137c-0.353,0.012-0.629,0.307-0.618,0.66
				c0.011,0.353,0.277,0.632,0.66,0.618l2.791-0.092l-1.019,1.019l-2.654,0.106c-0.353,0.014-0.628,0.312-0.613,0.664
				c0.014,0.353,0.318,0.641,0.664,0.613l1.27-0.051l-0.986,0.986c-0.25,0.25-0.25,0.654,0,0.904
				c0.125,0.125,0.288,0.187,0.452,0.187c0.164,0,0.327-0.062,0.452-0.187l0.802-0.802l-0.106,0.781
				c-0.047,0.35,0.198,0.672,0.547,0.72c0.03,0.004,0.058,0.006,0.087,0.006c0.315,0,0.589-0.233,0.633-0.553l0.332-2.446
				l1.071-1.071l-0.542,3.328c-0.057,0.349,0.18,0.677,0.528,0.734c0.035,0.006,0.07,0.008,0.104,0.008
				c0.308,0,0.579-0.223,0.63-0.536l0.815-5.007c0.003-0.02-0.005-0.038-0.003-0.058l4.048-4.048v6.122l-3.271,3.68
				c-0.235,0.264-0.211,0.667,0.053,0.902c0.264,0.235,0.668,0.211,0.902-0.053l2.316-2.605v1.368l-1.802,1.952
				c-0.239,0.259-0.223,0.664,0.036,0.904c0.259,0.239,0.663,0.224,0.904-0.036l0.862-0.934v1.394c0,0.353,0.286,0.639,0.639,0.639
				c0.353,0,0.639-0.286,0.639-0.639v-1.134l0.477,0.627c0.126,0.165,0.316,0.252,0.509,0.252c0.135,0,0.271-0.042,0.387-0.131
				c0.281-0.213,0.335-0.615,0.121-0.896l-1.494-1.964v-1.519l1.929,2.67c0.125,0.173,0.32,0.265,0.518,0.265
				c0.13,0,0.26-0.039,0.374-0.121c0.286-0.207,0.351-0.606,0.144-0.892l-2.922-4.046c-0.012-0.016-0.03-0.023-0.043-0.038v-5.872
				l4.247,4.247l-0.069,4.455c-0.005,0.353,0.276,0.644,0.629,0.649c0.003,0,0.007,0,0.01,0c0.349,0,0.634-0.28,0.639-0.629
				l0.049-3.216l0.699,0.699l0.484,2.623c0.057,0.308,0.326,0.523,0.628,0.523c0.039,0,0.077-0.003,0.117-0.01
				c0.347-0.064,0.576-0.397,0.513-0.745l-0.147-0.797l1.249,1.249c0.125,0.125,0.288,0.187,0.452,0.187s0.327-0.062,0.452-0.187
				c0.25-0.25,0.25-0.654,0-0.904l-1.635-1.635l1.236-0.019c0.353-0.005,0.635-0.296,0.629-0.649
				c-0.005-0.353-0.313-0.603-0.649-0.629l-2.475,0.039l-0.786-0.786l3.029-0.363c0.35-0.042,0.6-0.36,0.559-0.711
				c-0.042-0.35-0.362-0.603-0.711-0.559l-4.027,0.483l-4.146-4.146h5.918l3.707,2.792c0.115,0.087,0.25,0.129,0.384,0.129
				c0.194,0,0.385-0.088,0.511-0.255c0.212-0.282,0.156-0.683-0.126-0.895l-2.351-1.77h0.588l2.196,1.512
				c0.111,0.076,0.237,0.113,0.362,0.113c0.203,0,0.403-0.096,0.527-0.277c0.2-0.291,0.127-0.689-0.164-0.889l-0.667-0.459h1.765
				c0.353,0,0.639-0.286,0.639-0.639C209.196,130.578,208.91,130.292,208.557,130.292z M200.995,122.294l0.016,1.042l-0.258,0.258
				L200.995,122.294z"/>
			<path style="fill:#EBEBEB;" d="M117.985,213.108h-2.312l0.86-0.888c0.246-0.254,0.239-0.658-0.014-0.904
				c-0.253-0.245-0.658-0.24-0.904,0.014l-1.722,1.777h-1.112l1.885-2.399c0.218-0.277,0.17-0.68-0.108-0.898
				c-0.277-0.218-0.68-0.17-0.898,0.108l-2.506,3.189h-5.864l4.186-4.186l4.198-0.614c0.349-0.051,0.591-0.376,0.54-0.725
				c-0.051-0.349-0.378-0.591-0.725-0.54l-2.5,0.366l0.404-0.404l2.623-0.484c0.347-0.064,0.576-0.397,0.513-0.745
				c-0.064-0.348-0.397-0.574-0.745-0.513l-0.796,0.147l1.248-1.248c0.25-0.25,0.25-0.654,0-0.904c-0.25-0.25-0.654-0.25-0.904,0
				l-1.635,1.635l-0.019-1.236c-0.005-0.353-0.312-0.63-0.649-0.629c-0.353,0.005-0.635,0.296-0.629,0.649l0.013,0.824
				c-0.082-0.187-0.242-0.336-0.457-0.376c-0.347-0.066-0.681,0.164-0.745,0.512l-0.628,3.372l-4.226,4.226v-5.804l3.494-2.506
				c0.287-0.206,0.353-0.605,0.147-0.892c-0.206-0.287-0.605-0.353-0.892-0.147l-2.749,1.972v-1.253l1.512-2.196
				c0.2-0.291,0.127-0.689-0.164-0.889c-0.29-0.2-0.689-0.128-0.889,0.164l-0.459,0.667v-1.766c0-0.353-0.286-0.639-0.639-0.639
				c-0.353,0-0.639,0.286-0.639,0.639v2.311l-0.887-0.86c-0.253-0.245-0.658-0.239-0.904,0.014
				c-0.246,0.253-0.239,0.658,0.014,0.904l1.777,1.722v1.111l-2.398-1.885c-0.278-0.218-0.68-0.17-0.898,0.108
				c-0.218,0.278-0.17,0.679,0.108,0.898l3.188,2.506v5.718l-4.24-4.24l-0.389-4.541c-0.03-0.352-0.347-0.615-0.691-0.582
				c-0.352,0.03-0.613,0.34-0.582,0.691l0.26,3.029l-0.911-0.911l-0.106-2.654c-0.014-0.353-0.321-0.619-0.664-0.613
				c-0.353,0.014-0.628,0.312-0.614,0.664l0.051,1.271l-0.986-0.986c-0.25-0.25-0.654-0.25-0.904,0c-0.25,0.25-0.25,0.654,0,0.904
				l0.801,0.801l-0.78-0.106c-0.353-0.048-0.672,0.197-0.72,0.547c-0.047,0.35,0.198,0.672,0.547,0.72l2.446,0.332l1.065,1.065
				l-2.876-0.476c-0.347-0.058-0.677,0.178-0.735,0.526c-0.058,0.348,0.178,0.677,0.526,0.735l4.563,0.756
				c0.023,0.004,0.046,0.005,0.069,0.006l4.04,4.04H96.18l-3.137-3.239c-0.246-0.253-0.65-0.26-0.904-0.014
				c-0.253,0.245-0.26,0.65-0.014,0.904l2.275,2.349h-1.566l-1.951-1.802c-0.258-0.239-0.664-0.224-0.903,0.036
				c-0.24,0.259-0.224,0.664,0.036,0.903l0.935,0.863h-1.395c-0.353,0-0.639,0.286-0.639,0.639c0,0.353,0.286,0.639,0.639,0.639
				h1.133l-0.627,0.477c-0.281,0.214-0.335,0.615-0.121,0.896c0.126,0.165,0.316,0.252,0.509,0.252c0.135,0,0.271-0.042,0.387-0.131
				l1.964-1.494h1.943l-2.527,2.683c-0.242,0.257-0.23,0.662,0.027,0.904c0.124,0.117,0.281,0.174,0.438,0.174
				c0.17,0,0.34-0.067,0.465-0.201l3.352-3.56h5.707l-4.315,4.315l-4.156,0.137c-0.353,0.012-0.629,0.307-0.618,0.66
				c0.011,0.352,0.277,0.632,0.66,0.618l2.791-0.092l-1.019,1.019l-2.654,0.106c-0.353,0.014-0.628,0.312-0.613,0.664
				c0.014,0.353,0.317,0.641,0.664,0.613l1.27-0.051l-0.986,0.986c-0.25,0.25-0.25,0.654,0,0.904
				c0.125,0.125,0.288,0.187,0.452,0.187c0.163,0,0.327-0.062,0.452-0.187l0.802-0.802l-0.106,0.781
				c-0.047,0.35,0.198,0.672,0.547,0.72c0.03,0.004,0.058,0.006,0.087,0.006c0.315,0,0.589-0.233,0.633-0.553l0.332-2.446
				l1.071-1.071l-0.542,3.328c-0.057,0.349,0.18,0.677,0.528,0.734c0.035,0.006,0.069,0.008,0.104,0.008
				c0.308,0,0.579-0.223,0.63-0.536l0.815-5.007c0.003-0.02-0.005-0.038-0.003-0.058l4.048-4.048v6.122l-3.271,3.68
				c-0.235,0.264-0.211,0.668,0.053,0.902c0.264,0.235,0.668,0.211,0.902-0.053l2.316-2.605v1.368l-1.802,1.952
				c-0.239,0.259-0.223,0.664,0.036,0.904c0.259,0.239,0.663,0.224,0.904-0.036l0.862-0.934v1.394c0,0.353,0.286,0.639,0.639,0.639
				c0.353,0,0.639-0.286,0.639-0.639v-1.134l0.477,0.627c0.126,0.165,0.316,0.252,0.509,0.252c0.135,0,0.271-0.042,0.387-0.131
				c0.281-0.213,0.335-0.615,0.122-0.896l-1.494-1.964v-1.519l1.929,2.67c0.125,0.173,0.321,0.265,0.519,0.265
				c0.13,0,0.261-0.039,0.374-0.121c0.286-0.207,0.351-0.606,0.144-0.892l-2.922-4.046c-0.011-0.016-0.03-0.023-0.043-0.038v-5.872
				l4.247,4.247l-0.069,4.455c-0.005,0.353,0.276,0.644,0.629,0.649c0.003,0,0.007,0,0.01,0c0.349,0,0.634-0.28,0.639-0.629
				l0.05-3.216l0.699,0.699l0.484,2.623c0.057,0.308,0.326,0.523,0.628,0.523c0.039,0,0.077-0.003,0.117-0.01
				c0.347-0.064,0.576-0.397,0.513-0.745l-0.147-0.797l1.248,1.249c0.125,0.125,0.288,0.187,0.452,0.187
				c0.164,0,0.327-0.062,0.452-0.187c0.25-0.25,0.25-0.654,0-0.904l-1.635-1.635l1.236-0.019c0.353-0.006,0.635-0.296,0.629-0.649
				c-0.005-0.353-0.313-0.603-0.649-0.629l-2.475,0.039l-0.786-0.786l3.029-0.363c0.351-0.042,0.601-0.36,0.559-0.711
				c-0.042-0.35-0.362-0.603-0.711-0.559l-4.027,0.483l-4.146-4.146h5.918l3.707,2.792c0.115,0.087,0.25,0.129,0.384,0.129
				c0.194,0,0.385-0.088,0.511-0.255c0.212-0.282,0.156-0.683-0.126-0.895l-2.351-1.77h0.588l2.196,1.512
				c0.111,0.076,0.237,0.113,0.362,0.113c0.203,0,0.403-0.097,0.527-0.277c0.2-0.291,0.127-0.689-0.164-0.889l-0.667-0.459h1.765
				c0.353,0,0.639-0.286,0.639-0.639C118.625,213.395,118.338,213.108,117.985,213.108z M110.424,205.111l0.016,1.042l-0.258,0.258
				L110.424,205.111z"/>
			<path style="fill:#EBEBEB;" d="M401.643,94.421h-1.817l0.676-0.698c0.193-0.199,0.188-0.517-0.011-0.71
				c-0.199-0.193-0.517-0.188-0.71,0.011l-1.353,1.397h-0.874l1.482-1.885c0.171-0.218,0.134-0.534-0.085-0.705
				c-0.218-0.171-0.534-0.133-0.706,0.085l-1.969,2.506h-4.608l3.29-3.29l3.299-0.482c0.275-0.04,0.465-0.295,0.424-0.57
				c-0.04-0.274-0.297-0.464-0.57-0.424l-1.965,0.287l0.317-0.317l2.061-0.38c0.273-0.05,0.453-0.312,0.403-0.586
				c-0.05-0.273-0.312-0.451-0.585-0.403l-0.626,0.115l0.981-0.981c0.196-0.196,0.196-0.514,0-0.71c-0.196-0.196-0.514-0.196-0.71,0
				l-1.285,1.285l-0.015-0.971c-0.004-0.277-0.245-0.495-0.51-0.494c-0.277,0.004-0.499,0.233-0.495,0.51l0.01,0.647
				c-0.065-0.147-0.19-0.264-0.359-0.295c-0.273-0.052-0.535,0.129-0.586,0.402l-0.493,2.65l-3.321,3.321v-4.561l2.746-1.97
				c0.226-0.162,0.277-0.476,0.116-0.701c-0.162-0.226-0.475-0.277-0.701-0.115l-2.16,1.549v-0.985l1.189-1.726
				c0.157-0.229,0.1-0.541-0.129-0.699c-0.228-0.157-0.541-0.1-0.699,0.129l-0.361,0.524v-1.388c0-0.277-0.225-0.502-0.502-0.502
				c-0.277,0-0.502,0.225-0.502,0.502v1.817l-0.697-0.676c-0.199-0.192-0.517-0.188-0.71,0.011c-0.193,0.199-0.188,0.517,0.011,0.71
				l1.397,1.354v0.873l-1.885-1.481c-0.218-0.171-0.534-0.134-0.705,0.085c-0.171,0.218-0.134,0.534,0.085,0.706l2.506,1.969v4.493
				l-3.332-3.332l-0.306-3.569c-0.024-0.277-0.273-0.483-0.543-0.458c-0.276,0.023-0.481,0.267-0.457,0.543l0.204,2.38l-0.716-0.716
				l-0.083-2.086c-0.011-0.277-0.252-0.487-0.522-0.482c-0.277,0.011-0.493,0.245-0.482,0.522l0.04,0.998l-0.775-0.774
				c-0.196-0.196-0.514-0.196-0.71,0s-0.196,0.514,0,0.71l0.63,0.63l-0.613-0.083c-0.278-0.038-0.528,0.155-0.565,0.43
				c-0.037,0.275,0.155,0.528,0.43,0.565l1.922,0.261l0.837,0.837l-2.26-0.374c-0.272-0.045-0.532,0.14-0.578,0.414
				c-0.045,0.274,0.14,0.532,0.413,0.577l3.586,0.594c0.018,0.003,0.036,0.004,0.054,0.005l3.175,3.175h-4.769l-2.465-2.545
				c-0.193-0.199-0.511-0.204-0.71-0.011c-0.199,0.193-0.204,0.511-0.011,0.71l1.788,1.846h-1.231l-1.534-1.416
				c-0.203-0.188-0.522-0.176-0.71,0.028c-0.188,0.204-0.176,0.522,0.028,0.71l0.734,0.678H379.3c-0.277,0-0.502,0.225-0.502,0.502
				c0,0.277,0.225,0.502,0.502,0.502h0.891l-0.493,0.375c-0.221,0.168-0.264,0.483-0.096,0.704c0.099,0.13,0.249,0.198,0.4,0.198
				c0.106,0,0.213-0.033,0.304-0.103l1.543-1.174h1.527l-1.986,2.109c-0.19,0.202-0.181,0.52,0.021,0.71
				c0.097,0.092,0.221,0.137,0.344,0.137c0.133,0,0.267-0.053,0.366-0.158l2.634-2.797h4.485l-3.391,3.391l-3.266,0.108
				c-0.277,0.009-0.495,0.241-0.485,0.519c0.009,0.277,0.218,0.497,0.519,0.485l2.193-0.072l-0.801,0.801l-2.086,0.083
				c-0.277,0.011-0.493,0.245-0.482,0.522c0.011,0.277,0.25,0.503,0.522,0.482l0.998-0.04l-0.775,0.775
				c-0.196,0.196-0.196,0.514,0,0.71c0.098,0.098,0.227,0.147,0.355,0.147c0.129,0,0.257-0.049,0.355-0.147l0.63-0.63l-0.083,0.614
				c-0.037,0.275,0.155,0.528,0.43,0.565c0.023,0.003,0.046,0.005,0.068,0.005c0.247,0,0.463-0.183,0.497-0.435l0.261-1.922
				l0.841-0.842l-0.426,2.615c-0.045,0.274,0.141,0.532,0.415,0.577c0.027,0.005,0.055,0.007,0.081,0.007
				c0.242,0,0.455-0.175,0.495-0.422l0.64-3.935c0.003-0.015-0.004-0.03-0.003-0.046l3.181-3.181v4.811l-2.571,2.892
				c-0.185,0.207-0.165,0.525,0.042,0.709c0.207,0.185,0.525,0.166,0.709-0.042l1.82-2.047v1.075l-1.416,1.534
				c-0.188,0.204-0.175,0.522,0.029,0.71c0.204,0.188,0.521,0.176,0.71-0.028l0.678-0.734v1.095c0,0.277,0.225,0.502,0.502,0.502
				c0.277,0,0.502-0.225,0.502-0.502v-0.891l0.375,0.493c0.099,0.13,0.249,0.198,0.4,0.198c0.106,0,0.213-0.033,0.304-0.103
				c0.221-0.168,0.264-0.483,0.096-0.704l-1.174-1.543v-1.194l1.516,2.099c0.098,0.136,0.252,0.208,0.408,0.208
				c0.102,0,0.205-0.031,0.294-0.095c0.225-0.162,0.276-0.477,0.113-0.701l-2.297-3.18c-0.009-0.012-0.024-0.018-0.034-0.03v-4.614
				l3.338,3.338l-0.054,3.501c-0.004,0.278,0.217,0.506,0.495,0.51c0.003,0,0.005,0,0.008,0c0.274,0,0.498-0.22,0.502-0.495
				l0.039-2.527l0.549,0.549l0.38,2.062c0.045,0.242,0.256,0.411,0.494,0.411c0.03,0,0.061-0.003,0.092-0.008
				c0.273-0.05,0.453-0.312,0.403-0.585l-0.116-0.626l0.981,0.981c0.098,0.098,0.227,0.147,0.355,0.147
				c0.129,0,0.257-0.049,0.355-0.147c0.196-0.196,0.196-0.514,0-0.71l-1.285-1.285l0.971-0.015c0.277-0.004,0.499-0.233,0.495-0.51
				c-0.004-0.277-0.246-0.474-0.51-0.494l-1.945,0.03l-0.618-0.618l2.38-0.285c0.275-0.033,0.472-0.283,0.439-0.559
				c-0.033-0.275-0.284-0.474-0.559-0.439l-3.164,0.379l-3.258-3.258h4.65l2.913,2.194c0.091,0.068,0.197,0.101,0.302,0.101
				c0.152,0,0.303-0.069,0.402-0.2c0.167-0.222,0.123-0.537-0.099-0.703l-1.847-1.391h0.462l1.726,1.188
				c0.087,0.06,0.186,0.089,0.285,0.089c0.16,0,0.317-0.076,0.414-0.218c0.157-0.229,0.1-0.541-0.129-0.699l-0.524-0.361h1.387
				c0.277,0,0.502-0.225,0.502-0.502C402.145,94.646,401.92,94.421,401.643,94.421z M395.7,88.136l0.013,0.819l-0.203,0.203
				L395.7,88.136z"/>
			<path style="fill:#EBEBEB;" d="M236.409,203.742h-1.415l0.527-0.543c0.15-0.155,0.146-0.403-0.009-0.554
				c-0.155-0.15-0.403-0.147-0.553,0.009l-1.055,1.088h-0.681l1.154-1.469c0.133-0.17,0.104-0.416-0.066-0.55
				c-0.17-0.134-0.416-0.104-0.55,0.066l-1.534,1.952h-3.59l2.563-2.563l2.571-0.376c0.214-0.031,0.362-0.23,0.331-0.444
				c-0.031-0.214-0.231-0.362-0.444-0.331l-1.531,0.224l0.247-0.247l1.606-0.296c0.212-0.039,0.353-0.243,0.314-0.456
				c-0.039-0.213-0.243-0.351-0.456-0.314l-0.488,0.09l0.764-0.764c0.153-0.153,0.153-0.401,0-0.553
				c-0.153-0.153-0.401-0.153-0.553,0l-1.001,1.001l-0.012-0.757c-0.003-0.216-0.191-0.385-0.398-0.385
				c-0.216,0.003-0.389,0.182-0.385,0.398l0.008,0.504c-0.051-0.114-0.148-0.206-0.28-0.23c-0.212-0.04-0.417,0.101-0.456,0.313
				l-0.384,2.064l-2.587,2.587v-3.554l2.139-1.535c0.176-0.126,0.216-0.371,0.09-0.546c-0.126-0.176-0.37-0.216-0.546-0.09
				l-1.683,1.207v-0.768l0.926-1.345c0.123-0.178,0.078-0.422-0.1-0.544c-0.178-0.123-0.422-0.078-0.544,0.1l-0.281,0.409v-1.081
				c0-0.216-0.175-0.391-0.391-0.391c-0.216,0-0.391,0.175-0.391,0.391v1.415l-0.543-0.527c-0.155-0.15-0.403-0.146-0.553,0.009
				c-0.15,0.155-0.146,0.403,0.009,0.554l1.088,1.055v0.68l-1.469-1.154c-0.17-0.133-0.416-0.104-0.55,0.066
				c-0.134,0.17-0.104,0.416,0.066,0.55l1.952,1.534v3.501l-2.596-2.596l-0.239-2.78c-0.018-0.216-0.212-0.376-0.423-0.357
				c-0.215,0.018-0.375,0.208-0.357,0.423l0.159,1.854l-0.558-0.558l-0.065-1.625c-0.008-0.216-0.196-0.379-0.407-0.376
				c-0.216,0.009-0.384,0.191-0.376,0.407l0.031,0.778l-0.603-0.603c-0.153-0.153-0.401-0.153-0.553,0
				c-0.153,0.153-0.153,0.401,0,0.553l0.491,0.491l-0.478-0.065c-0.216-0.03-0.411,0.121-0.441,0.335
				c-0.029,0.214,0.121,0.411,0.335,0.441l1.498,0.203l0.652,0.652l-1.761-0.292c-0.212-0.035-0.415,0.109-0.45,0.322
				c-0.035,0.213,0.109,0.415,0.322,0.45l2.794,0.463c0.014,0.002,0.028,0.003,0.042,0.004l2.473,2.474h-3.715l-1.921-1.983
				c-0.151-0.155-0.398-0.159-0.553-0.009c-0.155,0.15-0.159,0.398-0.009,0.554l1.393,1.438h-0.959l-1.195-1.103
				c-0.158-0.146-0.406-0.137-0.553,0.022c-0.147,0.159-0.137,0.406,0.022,0.553l0.572,0.528h-0.854
				c-0.216,0-0.391,0.175-0.391,0.391c0,0.216,0.175,0.391,0.391,0.391h0.694l-0.384,0.292c-0.172,0.131-0.205,0.376-0.074,0.548
				c0.077,0.101,0.194,0.154,0.312,0.154c0.083,0,0.166-0.026,0.237-0.08l1.202-0.915h1.19l-1.547,1.643
				c-0.148,0.158-0.141,0.405,0.017,0.553c0.076,0.071,0.172,0.106,0.268,0.106c0.104,0,0.208-0.041,0.285-0.123l2.052-2.18h3.494
				l-2.642,2.642l-2.545,0.084c-0.216,0.007-0.385,0.188-0.378,0.404c0.007,0.216,0.17,0.387,0.404,0.378l1.709-0.056l-0.624,0.624
				l-1.625,0.065c-0.216,0.009-0.384,0.191-0.376,0.407c0.009,0.216,0.195,0.392,0.407,0.376l0.778-0.031l-0.604,0.604
				c-0.153,0.153-0.153,0.401,0,0.553c0.076,0.077,0.177,0.115,0.277,0.115c0.1,0,0.2-0.038,0.277-0.115l0.491-0.491l-0.065,0.478
				c-0.029,0.214,0.121,0.411,0.335,0.441c0.018,0.003,0.036,0.004,0.053,0.004c0.193,0,0.361-0.142,0.387-0.339l0.203-1.498
				l0.656-0.656l-0.332,2.038c-0.035,0.213,0.11,0.415,0.323,0.449c0.021,0.004,0.042,0.005,0.063,0.005
				c0.189,0,0.354-0.137,0.386-0.328l0.499-3.066c0.002-0.012-0.003-0.023-0.002-0.036l2.479-2.479v3.748l-2.003,2.253
				c-0.144,0.162-0.129,0.409,0.033,0.553c0.161,0.144,0.409,0.129,0.552-0.033l1.418-1.595v0.838l-1.103,1.195
				c-0.146,0.159-0.137,0.407,0.022,0.553c0.159,0.147,0.406,0.137,0.553-0.022l0.528-0.572v0.854c0,0.216,0.175,0.391,0.391,0.391
				c0.216,0,0.391-0.175,0.391-0.391v-0.694l0.292,0.384c0.077,0.101,0.194,0.154,0.312,0.154c0.083,0,0.166-0.026,0.237-0.08
				c0.172-0.131,0.205-0.376,0.074-0.548l-0.915-1.202v-0.93l1.181,1.635c0.076,0.106,0.196,0.162,0.317,0.162
				c0.079,0,0.16-0.024,0.229-0.074c0.175-0.127,0.215-0.371,0.088-0.546l-1.789-2.477c-0.007-0.01-0.018-0.014-0.026-0.023v-3.595
				l2.601,2.601l-0.042,2.728c-0.003,0.216,0.169,0.394,0.385,0.398c0.002,0,0.004,0,0.006,0c0.214,0,0.388-0.171,0.391-0.385
				l0.03-1.969l0.428,0.428l0.296,1.606c0.035,0.188,0.2,0.32,0.385,0.32c0.024,0,0.047-0.002,0.072-0.006
				c0.213-0.039,0.353-0.243,0.314-0.456l-0.09-0.488l0.764,0.764c0.077,0.077,0.177,0.115,0.277,0.115c0.1,0,0.2-0.038,0.277-0.115
				c0.153-0.153,0.153-0.401,0-0.553l-1.001-1.001l0.757-0.012c0.216-0.003,0.389-0.181,0.385-0.398
				c-0.003-0.216-0.192-0.369-0.398-0.385l-1.515,0.024l-0.481-0.481l1.855-0.222c0.215-0.026,0.368-0.221,0.342-0.435
				c-0.025-0.215-0.222-0.369-0.435-0.342l-2.465,0.296l-2.538-2.539h3.623l2.27,1.709c0.071,0.053,0.153,0.079,0.235,0.079
				c0.119,0,0.236-0.054,0.313-0.156c0.13-0.173,0.096-0.418-0.077-0.548l-1.439-1.084h0.36l1.345,0.926
				c0.068,0.047,0.145,0.069,0.222,0.069c0.124,0,0.247-0.059,0.323-0.17c0.123-0.178,0.078-0.422-0.1-0.544l-0.408-0.281h1.081
				c0.216,0,0.391-0.175,0.391-0.391C236.8,203.918,236.625,203.742,236.409,203.742z M231.779,198.846l0.01,0.638l-0.158,0.158
				L231.779,198.846z"/>
			<path style="fill:#EBEBEB;" d="M93.462,100.664h-1.415l0.527-0.544c0.15-0.155,0.146-0.403-0.009-0.553
				c-0.155-0.15-0.403-0.147-0.554,0.009l-1.055,1.088h-0.681l1.154-1.469c0.134-0.17,0.104-0.416-0.066-0.55
				c-0.17-0.133-0.416-0.104-0.55,0.066l-1.534,1.952h-3.59l2.563-2.563l2.571-0.376c0.214-0.031,0.362-0.23,0.331-0.444
				c-0.031-0.214-0.231-0.362-0.444-0.331l-1.531,0.224l0.247-0.247l1.606-0.296c0.213-0.039,0.353-0.243,0.314-0.456
				c-0.039-0.213-0.243-0.351-0.456-0.314l-0.488,0.09l0.764-0.764c0.153-0.153,0.153-0.401,0-0.554
				c-0.153-0.153-0.401-0.153-0.554,0l-1.001,1.001L89.6,94.878c-0.003-0.216-0.191-0.386-0.397-0.385
				c-0.216,0.003-0.389,0.181-0.385,0.397l0.008,0.504c-0.05-0.114-0.148-0.206-0.28-0.23c-0.213-0.04-0.417,0.101-0.456,0.313
				l-0.384,2.064l-2.588,2.588v-3.554l2.139-1.535c0.176-0.126,0.216-0.37,0.09-0.546c-0.126-0.176-0.37-0.216-0.546-0.09
				l-1.683,1.207v-0.767l0.926-1.345c0.123-0.178,0.078-0.422-0.1-0.544c-0.178-0.123-0.422-0.078-0.544,0.1l-0.281,0.409v-1.081
				c0-0.216-0.175-0.391-0.391-0.391c-0.216,0-0.391,0.175-0.391,0.391v1.415l-0.543-0.526c-0.155-0.15-0.403-0.146-0.553,0.009
				c-0.15,0.155-0.147,0.403,0.009,0.553l1.088,1.055v0.68l-1.469-1.154c-0.17-0.133-0.416-0.104-0.55,0.066
				c-0.133,0.17-0.104,0.416,0.066,0.55l1.952,1.534v3.501l-2.596-2.596L81.5,94.69c-0.018-0.216-0.213-0.376-0.423-0.356
				c-0.215,0.018-0.375,0.208-0.356,0.423l0.159,1.854l-0.558-0.558l-0.065-1.625c-0.008-0.216-0.196-0.379-0.407-0.376
				c-0.216,0.009-0.384,0.191-0.376,0.407l0.031,0.778l-0.603-0.604c-0.153-0.153-0.401-0.153-0.553,0s-0.153,0.401,0,0.554
				l0.491,0.491l-0.478-0.065c-0.216-0.029-0.411,0.121-0.441,0.335c-0.029,0.214,0.121,0.412,0.335,0.441l1.497,0.203l0.652,0.652
				l-1.761-0.292c-0.212-0.035-0.415,0.109-0.45,0.322c-0.035,0.213,0.109,0.415,0.322,0.45l2.794,0.463
				c0.014,0.002,0.028,0.003,0.042,0.003l2.474,2.474H80.11l-1.921-1.983c-0.151-0.155-0.398-0.159-0.553-0.009
				c-0.155,0.15-0.159,0.398-0.009,0.553l1.393,1.438h-0.959l-1.195-1.103c-0.158-0.146-0.406-0.137-0.553,0.022
				c-0.147,0.159-0.137,0.406,0.022,0.553l0.572,0.528h-0.854c-0.216,0-0.391,0.175-0.391,0.391c0,0.216,0.175,0.391,0.391,0.391
				h0.694l-0.384,0.292c-0.172,0.131-0.205,0.376-0.074,0.548c0.077,0.101,0.194,0.154,0.312,0.154c0.083,0,0.166-0.026,0.237-0.08
				l1.202-0.915h1.19l-1.547,1.643c-0.148,0.158-0.141,0.405,0.017,0.553c0.076,0.071,0.172,0.107,0.268,0.107
				c0.104,0,0.208-0.041,0.285-0.123l2.052-2.18h3.494l-2.642,2.642l-2.545,0.084c-0.216,0.007-0.385,0.188-0.378,0.404
				c0.007,0.216,0.17,0.387,0.404,0.378l1.709-0.056l-0.624,0.624l-1.625,0.065c-0.216,0.009-0.384,0.191-0.376,0.407
				c0.009,0.216,0.194,0.392,0.407,0.376l0.778-0.031l-0.604,0.604c-0.153,0.153-0.153,0.401,0,0.553
				c0.076,0.076,0.177,0.115,0.277,0.115c0.1,0,0.2-0.038,0.277-0.115l0.491-0.491l-0.065,0.478
				c-0.029,0.214,0.121,0.412,0.335,0.441c0.018,0.003,0.036,0.004,0.053,0.004c0.193,0,0.361-0.142,0.387-0.339l0.203-1.498
				l0.656-0.656l-0.332,2.038c-0.035,0.214,0.11,0.415,0.323,0.449c0.021,0.004,0.043,0.005,0.063,0.005
				c0.189,0,0.354-0.137,0.386-0.328l0.499-3.066c0.002-0.012-0.003-0.023-0.002-0.035l2.479-2.479v3.748l-2.003,2.253
				c-0.144,0.161-0.129,0.409,0.033,0.552c0.162,0.144,0.409,0.129,0.553-0.033l1.418-1.595v0.838l-1.103,1.195
				c-0.146,0.159-0.137,0.406,0.022,0.553c0.159,0.146,0.406,0.137,0.553-0.022l0.528-0.572v0.854c0,0.216,0.175,0.391,0.391,0.391
				c0.216,0,0.391-0.175,0.391-0.391v-0.694l0.292,0.384c0.077,0.101,0.194,0.154,0.312,0.154c0.083,0,0.166-0.026,0.237-0.08
				c0.172-0.131,0.205-0.376,0.074-0.548l-0.915-1.202v-0.93l1.181,1.635c0.076,0.106,0.196,0.162,0.317,0.162
				c0.079,0,0.16-0.024,0.229-0.074c0.175-0.127,0.215-0.371,0.088-0.546l-1.789-2.477c-0.007-0.01-0.019-0.014-0.026-0.023v-3.595
				l2.601,2.601l-0.042,2.728c-0.003,0.216,0.169,0.394,0.385,0.397c0.002,0,0.004,0,0.006,0c0.214,0,0.388-0.171,0.391-0.385
				l0.03-1.969l0.428,0.428l0.296,1.606c0.035,0.189,0.2,0.32,0.385,0.32c0.024,0,0.047-0.002,0.072-0.006
				c0.213-0.039,0.353-0.243,0.314-0.456l-0.09-0.488l0.764,0.765c0.076,0.076,0.177,0.115,0.277,0.115c0.1,0,0.2-0.038,0.277-0.115
				c0.153-0.153,0.153-0.401,0-0.553l-1.001-1.001l0.757-0.012c0.216-0.003,0.389-0.181,0.385-0.397
				c-0.003-0.216-0.192-0.369-0.397-0.385l-1.515,0.024l-0.481-0.481l1.855-0.222c0.215-0.026,0.368-0.221,0.342-0.435
				c-0.025-0.215-0.221-0.369-0.435-0.342l-2.465,0.296l-2.539-2.539h3.623l2.27,1.709c0.071,0.053,0.153,0.079,0.235,0.079
				c0.119,0,0.236-0.054,0.313-0.156c0.13-0.173,0.095-0.418-0.077-0.548l-1.439-1.084H91l1.345,0.926
				c0.068,0.047,0.145,0.069,0.222,0.069c0.124,0,0.247-0.059,0.323-0.169c0.123-0.178,0.078-0.422-0.1-0.544l-0.408-0.281h1.081
				c0.216,0,0.391-0.175,0.391-0.391C93.853,100.84,93.678,100.664,93.462,100.664z M88.831,95.768l0.01,0.638l-0.158,0.158
				L88.831,95.768z"/>
			<path style="fill:#EBEBEB;" d="M307.405,96.093h-1.415l0.527-0.543c0.15-0.155,0.147-0.403-0.009-0.554
				c-0.155-0.15-0.403-0.147-0.553,0.009l-1.055,1.088h-0.681l1.154-1.469c0.133-0.17,0.104-0.416-0.066-0.55
				c-0.17-0.133-0.416-0.104-0.55,0.066l-1.534,1.952h-3.59l2.563-2.563l2.57-0.376c0.214-0.031,0.362-0.23,0.331-0.444
				c-0.031-0.214-0.231-0.362-0.444-0.331l-1.531,0.224l0.247-0.247l1.606-0.296c0.213-0.039,0.353-0.243,0.314-0.456
				c-0.039-0.213-0.243-0.351-0.456-0.314l-0.488,0.09l0.764-0.764c0.153-0.153,0.153-0.401,0-0.553
				c-0.153-0.153-0.401-0.153-0.553,0l-1.001,1.001l-0.012-0.757c-0.003-0.216-0.191-0.385-0.398-0.385
				c-0.216,0.003-0.389,0.182-0.385,0.398l0.008,0.504c-0.051-0.114-0.148-0.205-0.28-0.23c-0.212-0.04-0.417,0.101-0.456,0.313
				l-0.384,2.064l-2.588,2.587v-3.554l2.139-1.535c0.176-0.126,0.216-0.371,0.09-0.546c-0.126-0.176-0.37-0.216-0.546-0.09
				l-1.683,1.207v-0.768l0.926-1.345c0.123-0.178,0.078-0.422-0.1-0.544c-0.178-0.123-0.422-0.078-0.544,0.1l-0.281,0.409v-1.081
				c0-0.216-0.175-0.391-0.391-0.391s-0.391,0.175-0.391,0.391v1.415l-0.543-0.526c-0.155-0.15-0.403-0.146-0.553,0.009
				c-0.15,0.155-0.147,0.403,0.009,0.554l1.088,1.055v0.681l-1.469-1.154c-0.17-0.133-0.416-0.104-0.55,0.066
				c-0.133,0.17-0.104,0.416,0.066,0.55l1.952,1.534v3.501l-2.596-2.596l-0.238-2.78c-0.018-0.216-0.212-0.376-0.423-0.356
				c-0.215,0.018-0.375,0.208-0.356,0.423l0.159,1.854l-0.558-0.558l-0.065-1.625c-0.008-0.216-0.196-0.379-0.407-0.376
				c-0.216,0.009-0.384,0.191-0.376,0.407l0.031,0.778l-0.603-0.604c-0.153-0.153-0.401-0.153-0.553,0
				c-0.153,0.153-0.153,0.401,0,0.553l0.491,0.491l-0.478-0.065c-0.216-0.03-0.411,0.121-0.441,0.335
				c-0.029,0.214,0.121,0.411,0.335,0.441l1.497,0.203l0.652,0.652l-1.761-0.292c-0.212-0.035-0.415,0.109-0.45,0.322
				c-0.035,0.213,0.109,0.415,0.322,0.45l2.794,0.463c0.014,0.002,0.028,0.003,0.042,0.004l2.474,2.474h-3.716l-1.921-1.983
				c-0.151-0.155-0.398-0.159-0.553-0.009c-0.155,0.15-0.159,0.398-0.009,0.554l1.393,1.438h-0.959l-1.195-1.103
				c-0.158-0.147-0.406-0.137-0.553,0.022c-0.147,0.159-0.137,0.406,0.022,0.553l0.572,0.528h-0.854
				c-0.216,0-0.391,0.175-0.391,0.391s0.175,0.391,0.391,0.391h0.694l-0.384,0.292c-0.172,0.131-0.205,0.376-0.074,0.548
				c0.077,0.101,0.194,0.155,0.312,0.155c0.083,0,0.166-0.026,0.237-0.08l1.202-0.915h1.19l-1.547,1.643
				c-0.148,0.158-0.141,0.405,0.017,0.553c0.076,0.071,0.172,0.106,0.268,0.106c0.104,0,0.208-0.041,0.285-0.123l2.052-2.179h3.494
				l-2.642,2.642l-2.545,0.084c-0.216,0.007-0.385,0.188-0.378,0.404c0.007,0.216,0.17,0.387,0.404,0.378l1.709-0.056l-0.624,0.624
				l-1.625,0.065c-0.216,0.009-0.384,0.191-0.376,0.407c0.009,0.216,0.194,0.392,0.407,0.376l0.778-0.031l-0.603,0.604
				c-0.153,0.153-0.153,0.401,0,0.553c0.076,0.076,0.177,0.115,0.277,0.115c0.1,0,0.2-0.038,0.277-0.115l0.491-0.491l-0.065,0.478
				c-0.029,0.214,0.121,0.412,0.335,0.441c0.018,0.002,0.036,0.004,0.053,0.004c0.193,0,0.361-0.142,0.387-0.339l0.203-1.498
				l0.656-0.656l-0.332,2.038c-0.035,0.213,0.11,0.415,0.323,0.449c0.021,0.004,0.042,0.005,0.063,0.005
				c0.189,0,0.355-0.137,0.386-0.328l0.499-3.066c0.002-0.012-0.003-0.023-0.002-0.036l2.479-2.479v3.748l-2.003,2.253
				c-0.144,0.162-0.129,0.409,0.033,0.553c0.162,0.144,0.409,0.129,0.552-0.033l1.418-1.595v0.838l-1.103,1.195
				c-0.146,0.159-0.137,0.407,0.022,0.553c0.159,0.147,0.406,0.137,0.553-0.022l0.528-0.572v0.854c0,0.216,0.175,0.392,0.391,0.392
				s0.391-0.175,0.391-0.392v-0.694l0.292,0.384c0.077,0.101,0.194,0.154,0.312,0.154c0.083,0,0.166-0.026,0.237-0.08
				c0.172-0.131,0.205-0.376,0.074-0.548l-0.915-1.202v-0.93l1.181,1.635c0.077,0.106,0.196,0.162,0.318,0.162
				c0.079,0,0.159-0.024,0.229-0.074c0.175-0.127,0.215-0.371,0.088-0.546l-1.789-2.477c-0.007-0.01-0.018-0.014-0.026-0.023v-3.595
				l2.601,2.601l-0.042,2.728c-0.003,0.216,0.169,0.394,0.385,0.397c0.002,0,0.004,0,0.006,0c0.214,0,0.388-0.171,0.391-0.385
				l0.03-1.969l0.428,0.428l0.296,1.606c0.035,0.188,0.199,0.32,0.384,0.32c0.024,0,0.047-0.002,0.072-0.006
				c0.212-0.039,0.353-0.243,0.314-0.456l-0.09-0.488l0.764,0.764c0.076,0.076,0.177,0.115,0.277,0.115s0.2-0.038,0.277-0.115
				c0.153-0.153,0.153-0.401,0-0.553l-1.001-1.001l0.757-0.012c0.216-0.003,0.389-0.181,0.385-0.397
				c-0.003-0.216-0.192-0.369-0.397-0.385l-1.515,0.024l-0.481-0.481l1.855-0.222c0.215-0.026,0.368-0.221,0.342-0.435
				c-0.025-0.215-0.221-0.369-0.435-0.342l-2.465,0.296l-2.539-2.539h3.623l2.27,1.709c0.07,0.053,0.153,0.079,0.235,0.079
				c0.119,0,0.236-0.054,0.313-0.156c0.13-0.173,0.095-0.418-0.077-0.548l-1.439-1.084h0.36l1.345,0.926
				c0.068,0.047,0.145,0.069,0.222,0.069c0.124,0,0.247-0.059,0.323-0.17c0.123-0.178,0.078-0.422-0.1-0.544l-0.408-0.281h1.081
				c0.216,0,0.391-0.175,0.391-0.391S307.621,96.093,307.405,96.093z M302.775,91.196l0.01,0.638l-0.158,0.158L302.775,91.196z"/>
			<path style="fill:#EBEBEB;" d="M430.848,158.91h-1.415l0.527-0.544c0.15-0.155,0.147-0.403-0.009-0.553
				c-0.155-0.15-0.403-0.147-0.553,0.009l-1.055,1.088h-0.681l1.154-1.469c0.134-0.17,0.104-0.416-0.066-0.55
				c-0.17-0.133-0.416-0.104-0.55,0.066l-1.534,1.952h-3.59l2.563-2.563l2.571-0.376c0.214-0.031,0.362-0.23,0.331-0.444
				c-0.031-0.214-0.231-0.362-0.444-0.331l-1.531,0.224l0.247-0.247l1.606-0.296c0.212-0.039,0.353-0.243,0.314-0.456
				c-0.039-0.213-0.243-0.351-0.456-0.314l-0.487,0.09l0.764-0.764c0.153-0.153,0.153-0.4,0-0.553c-0.153-0.153-0.401-0.153-0.553,0
				l-1.001,1.001l-0.012-0.757c-0.003-0.216-0.191-0.386-0.397-0.385c-0.216,0.003-0.389,0.181-0.385,0.398l0.008,0.504
				c-0.051-0.114-0.148-0.206-0.28-0.23c-0.212-0.04-0.417,0.101-0.456,0.313l-0.384,2.064l-2.587,2.587v-3.554l2.139-1.535
				c0.176-0.126,0.216-0.37,0.09-0.546c-0.126-0.176-0.37-0.216-0.546-0.09l-1.683,1.207v-0.768l0.926-1.345
				c0.123-0.178,0.078-0.422-0.1-0.544c-0.178-0.123-0.422-0.078-0.544,0.1l-0.281,0.409v-1.081c0-0.216-0.175-0.391-0.391-0.391
				c-0.216,0-0.391,0.175-0.391,0.391v1.415l-0.543-0.527c-0.155-0.15-0.403-0.146-0.553,0.009c-0.15,0.155-0.147,0.403,0.009,0.553
				l1.088,1.055v0.68l-1.469-1.154c-0.17-0.133-0.416-0.104-0.55,0.066c-0.134,0.17-0.104,0.416,0.066,0.55l1.952,1.534v3.501
				l-2.596-2.596l-0.239-2.78c-0.018-0.216-0.212-0.376-0.423-0.357c-0.215,0.018-0.375,0.208-0.357,0.423l0.159,1.854l-0.558-0.557
				l-0.065-1.625c-0.008-0.216-0.196-0.379-0.407-0.376c-0.216,0.009-0.384,0.191-0.376,0.407l0.031,0.778l-0.603-0.603
				c-0.153-0.153-0.401-0.153-0.553,0c-0.153,0.153-0.153,0.4,0,0.553l0.491,0.491l-0.478-0.065
				c-0.216-0.03-0.411,0.121-0.441,0.335c-0.029,0.214,0.121,0.412,0.335,0.441l1.497,0.203l0.652,0.652l-1.761-0.292
				c-0.212-0.035-0.415,0.109-0.45,0.322c-0.036,0.213,0.109,0.415,0.322,0.45l2.794,0.463c0.014,0.002,0.028,0.003,0.042,0.003
				l2.474,2.474h-3.716l-1.921-1.983c-0.151-0.155-0.398-0.159-0.553-0.009c-0.155,0.15-0.159,0.398-0.009,0.553l1.393,1.438h-0.959
				l-1.195-1.103c-0.158-0.146-0.406-0.137-0.553,0.022c-0.147,0.159-0.137,0.406,0.022,0.553l0.572,0.529h-0.854
				c-0.216,0-0.391,0.175-0.391,0.391s0.175,0.391,0.391,0.391h0.694l-0.384,0.292c-0.172,0.131-0.205,0.376-0.074,0.548
				c0.077,0.101,0.194,0.154,0.312,0.154c0.083,0,0.166-0.026,0.237-0.08l1.202-0.915h1.19l-1.547,1.643
				c-0.148,0.158-0.141,0.405,0.017,0.553c0.076,0.071,0.172,0.107,0.268,0.107c0.104,0,0.208-0.041,0.285-0.123l2.052-2.179h3.494
				l-2.642,2.642l-2.545,0.084c-0.216,0.007-0.385,0.188-0.378,0.404c0.007,0.216,0.17,0.387,0.404,0.378l1.709-0.056l-0.624,0.624
				l-1.625,0.065c-0.216,0.009-0.384,0.191-0.376,0.407c0.009,0.216,0.194,0.392,0.407,0.376l0.778-0.031l-0.604,0.604
				c-0.153,0.153-0.153,0.401,0,0.553c0.076,0.076,0.177,0.115,0.277,0.115c0.1,0,0.2-0.038,0.277-0.115l0.491-0.491l-0.065,0.478
				c-0.029,0.214,0.121,0.412,0.335,0.441c0.018,0.003,0.036,0.004,0.053,0.004c0.193,0,0.361-0.143,0.387-0.339l0.203-1.498
				l0.656-0.656l-0.332,2.038c-0.035,0.214,0.11,0.415,0.323,0.449c0.021,0.004,0.043,0.005,0.063,0.005
				c0.189,0,0.354-0.137,0.386-0.328l0.499-3.066c0.002-0.012-0.003-0.024-0.002-0.036l2.479-2.479v3.748l-2.003,2.253
				c-0.144,0.162-0.129,0.409,0.033,0.553c0.162,0.144,0.409,0.129,0.553-0.033l1.418-1.595v0.838l-1.103,1.195
				c-0.147,0.159-0.137,0.406,0.022,0.553c0.159,0.146,0.406,0.137,0.553-0.022l0.528-0.572v0.854c0,0.216,0.175,0.391,0.391,0.391
				c0.216,0,0.391-0.175,0.391-0.391v-0.694l0.292,0.384c0.077,0.101,0.194,0.154,0.312,0.154c0.082,0,0.166-0.026,0.237-0.08
				c0.172-0.131,0.205-0.376,0.074-0.548l-0.915-1.202v-0.93l1.181,1.635c0.077,0.106,0.196,0.162,0.318,0.162
				c0.079,0,0.16-0.024,0.229-0.074c0.175-0.127,0.215-0.371,0.088-0.546l-1.789-2.477c-0.007-0.01-0.019-0.014-0.026-0.023v-3.595
				l2.601,2.601l-0.042,2.728c-0.003,0.216,0.169,0.394,0.385,0.397c0.002,0,0.004,0,0.006,0c0.214,0,0.388-0.171,0.391-0.385
				l0.03-1.969l0.428,0.428l0.296,1.606c0.035,0.189,0.199,0.32,0.384,0.32c0.024,0,0.047-0.002,0.072-0.006
				c0.213-0.039,0.353-0.243,0.314-0.456l-0.09-0.488l0.765,0.765c0.076,0.076,0.177,0.115,0.277,0.115c0.1,0,0.2-0.038,0.277-0.115
				c0.153-0.153,0.153-0.401,0-0.553l-1.001-1.001l0.757-0.012c0.216-0.003,0.389-0.181,0.385-0.398s-0.192-0.369-0.397-0.385
				l-1.515,0.024l-0.481-0.481l1.855-0.222c0.215-0.026,0.368-0.221,0.342-0.435c-0.026-0.215-0.221-0.369-0.435-0.342l-2.465,0.296
				l-2.539-2.539h3.623l2.27,1.709c0.071,0.053,0.153,0.079,0.235,0.079c0.119,0,0.236-0.054,0.313-0.156
				c0.13-0.173,0.095-0.418-0.077-0.548l-1.439-1.084h0.36l1.345,0.926c0.068,0.047,0.145,0.069,0.222,0.069
				c0.124,0,0.247-0.059,0.323-0.169c0.122-0.178,0.078-0.422-0.1-0.544l-0.408-0.281h1.081c0.216,0,0.391-0.175,0.391-0.391
				S431.064,158.91,430.848,158.91z M426.218,154.013l0.01,0.638l-0.158,0.158L426.218,154.013z"/>
			<path style="fill:#EBEBEB;" d="M376.621,238.488h-1.025l0.381-0.393c0.109-0.112,0.106-0.292-0.006-0.401
				c-0.112-0.109-0.292-0.106-0.401,0.006l-0.763,0.788h-0.493l0.836-1.063c0.097-0.123,0.075-0.301-0.048-0.398
				c-0.123-0.097-0.301-0.075-0.398,0.048l-1.111,1.413h-2.599l1.855-1.855l1.861-0.272c0.155-0.023,0.262-0.167,0.239-0.321
				c-0.023-0.155-0.167-0.262-0.321-0.239l-1.108,0.162l0.179-0.179l1.163-0.214c0.154-0.028,0.255-0.176,0.227-0.33
				c-0.028-0.154-0.176-0.254-0.33-0.227l-0.353,0.065l0.553-0.553c0.111-0.111,0.111-0.29,0-0.401c-0.111-0.111-0.29-0.111-0.401,0
				l-0.725,0.725l-0.009-0.548c-0.002-0.157-0.138-0.279-0.288-0.279c-0.156,0.002-0.281,0.131-0.279,0.288l0.006,0.365
				c-0.036-0.083-0.107-0.149-0.203-0.167c-0.154-0.029-0.302,0.073-0.33,0.227l-0.278,1.495l-1.873,1.873v-2.573l1.549-1.111
				c0.127-0.091,0.156-0.268,0.065-0.395c-0.091-0.127-0.268-0.156-0.395-0.065l-1.219,0.874v-0.556l0.67-0.974
				c0.089-0.129,0.056-0.305-0.073-0.394c-0.129-0.089-0.305-0.057-0.394,0.073l-0.204,0.296v-0.783
				c0-0.156-0.127-0.283-0.283-0.283c-0.156,0-0.283,0.127-0.283,0.283v1.025l-0.393-0.381c-0.112-0.109-0.292-0.106-0.401,0.006
				c-0.109,0.112-0.106,0.292,0.006,0.401l0.788,0.764v0.493l-1.063-0.835c-0.123-0.097-0.301-0.075-0.398,0.048
				c-0.097,0.123-0.075,0.301,0.048,0.398l1.413,1.111v2.534l-1.879-1.879l-0.173-2.013c-0.013-0.156-0.154-0.273-0.306-0.258
				c-0.156,0.013-0.271,0.151-0.258,0.306l0.115,1.342l-0.404-0.404l-0.047-1.177c-0.006-0.156-0.142-0.275-0.294-0.272
				c-0.156,0.006-0.278,0.138-0.272,0.295l0.022,0.563l-0.437-0.437c-0.111-0.111-0.29-0.111-0.401,0
				c-0.111,0.111-0.111,0.29,0,0.401l0.355,0.355l-0.346-0.047c-0.157-0.021-0.298,0.087-0.319,0.243
				c-0.021,0.155,0.088,0.298,0.242,0.319l1.084,0.147l0.472,0.472l-1.275-0.211c-0.154-0.026-0.3,0.079-0.326,0.233
				c-0.026,0.154,0.079,0.3,0.233,0.326l2.022,0.335c0.01,0.002,0.02,0.002,0.03,0.003l1.791,1.791h-2.69l-1.391-1.436
				c-0.109-0.112-0.288-0.115-0.401-0.006c-0.112,0.109-0.115,0.288-0.006,0.401l1.009,1.041h-0.694l-0.865-0.799
				c-0.115-0.106-0.294-0.099-0.4,0.016c-0.106,0.115-0.099,0.294,0.016,0.4l0.414,0.383h-0.618c-0.156,0-0.283,0.127-0.283,0.283
				c0,0.156,0.127,0.283,0.283,0.283h0.502l-0.278,0.211c-0.125,0.095-0.149,0.273-0.054,0.397c0.056,0.073,0.14,0.112,0.226,0.112
				c0.06,0,0.12-0.019,0.171-0.058l0.87-0.662h0.862l-1.12,1.189c-0.107,0.114-0.102,0.293,0.012,0.4
				c0.055,0.052,0.124,0.077,0.194,0.077c0.075,0,0.151-0.03,0.206-0.089l1.486-1.578h2.53l-1.913,1.913l-1.842,0.061
				c-0.156,0.005-0.279,0.136-0.274,0.293c0.005,0.156,0.123,0.28,0.293,0.274l1.237-0.041l-0.452,0.452l-1.176,0.047
				c-0.156,0.006-0.278,0.138-0.272,0.294c0.006,0.156,0.141,0.284,0.294,0.272l0.563-0.022l-0.437,0.437
				c-0.111,0.111-0.111,0.29,0,0.401c0.055,0.055,0.128,0.083,0.2,0.083s0.145-0.028,0.2-0.083l0.355-0.355l-0.047,0.346
				c-0.021,0.155,0.088,0.298,0.243,0.319c0.013,0.002,0.026,0.003,0.039,0.003c0.14,0,0.261-0.103,0.28-0.245l0.147-1.084
				l0.475-0.475l-0.24,1.475c-0.025,0.155,0.08,0.3,0.234,0.325c0.016,0.003,0.031,0.004,0.046,0.004
				c0.137,0,0.257-0.099,0.279-0.238l0.361-2.219c0.001-0.009-0.002-0.017-0.001-0.026l1.794-1.794v2.714l-1.45,1.631
				c-0.104,0.117-0.093,0.296,0.024,0.4c0.117,0.104,0.296,0.094,0.4-0.024l1.026-1.155v0.606l-0.799,0.865
				c-0.106,0.115-0.099,0.294,0.016,0.4c0.115,0.106,0.294,0.099,0.401-0.016l0.382-0.414v0.618c0,0.156,0.127,0.283,0.283,0.283
				c0.156,0,0.283-0.127,0.283-0.283v-0.503l0.212,0.278c0.056,0.073,0.14,0.112,0.226,0.112c0.06,0,0.12-0.019,0.171-0.058
				c0.125-0.095,0.149-0.272,0.054-0.397l-0.663-0.87v-0.673l0.855,1.184c0.055,0.077,0.142,0.118,0.23,0.118
				c0.058,0,0.115-0.017,0.166-0.054c0.127-0.092,0.156-0.269,0.064-0.395l-1.295-1.794c-0.005-0.007-0.013-0.01-0.019-0.017v-2.603
				l1.883,1.883l-0.03,1.975c-0.002,0.157,0.122,0.285,0.279,0.288c0.001,0,0.003,0,0.004,0c0.155,0,0.281-0.124,0.283-0.279
				l0.022-1.426l0.31,0.31l0.214,1.163c0.025,0.137,0.145,0.232,0.278,0.232c0.017,0,0.034-0.001,0.052-0.005
				c0.154-0.028,0.255-0.176,0.227-0.33l-0.065-0.353l0.553,0.553c0.055,0.055,0.128,0.083,0.2,0.083c0.072,0,0.145-0.028,0.2-0.083
				c0.111-0.111,0.111-0.29,0-0.401l-0.725-0.725l0.548-0.008c0.156-0.002,0.281-0.131,0.279-0.288
				c-0.002-0.156-0.139-0.267-0.288-0.279l-1.097,0.017l-0.348-0.348l1.343-0.161c0.155-0.019,0.266-0.16,0.247-0.315
				c-0.018-0.155-0.16-0.267-0.315-0.247l-1.785,0.214l-1.838-1.838h2.623l1.643,1.238c0.051,0.038,0.111,0.057,0.17,0.057
				c0.086,0,0.171-0.039,0.227-0.113c0.094-0.125,0.069-0.303-0.056-0.397l-1.042-0.785h0.26l0.974,0.67
				c0.049,0.034,0.105,0.05,0.16,0.05c0.09,0,0.179-0.043,0.234-0.123c0.089-0.129,0.056-0.305-0.073-0.394l-0.296-0.203h0.783
				c0.157,0,0.283-0.127,0.283-0.283C376.904,238.615,376.777,238.488,376.621,238.488z M373.269,234.943l0.007,0.462l-0.115,0.115
				L373.269,234.943z"/>
			<path style="fill:#EBEBEB;" d="M417.827,294.422h-1.415l0.527-0.543c0.15-0.155,0.146-0.403-0.009-0.553
				c-0.155-0.15-0.403-0.147-0.553,0.009l-1.055,1.088h-0.681l1.154-1.469c0.134-0.17,0.104-0.416-0.066-0.55
				c-0.17-0.134-0.416-0.104-0.55,0.066l-1.534,1.952h-3.59l2.563-2.563l2.57-0.376c0.214-0.031,0.362-0.23,0.331-0.444
				c-0.031-0.214-0.231-0.362-0.444-0.331l-1.531,0.224l0.247-0.247l1.606-0.296c0.212-0.039,0.353-0.243,0.314-0.456
				c-0.039-0.213-0.243-0.351-0.456-0.314l-0.487,0.09l0.764-0.764c0.153-0.153,0.153-0.401,0-0.553
				c-0.153-0.153-0.401-0.153-0.553,0l-1.001,1.001l-0.012-0.757c-0.003-0.216-0.191-0.385-0.397-0.385
				c-0.216,0.003-0.389,0.181-0.385,0.397l0.008,0.504c-0.05-0.114-0.148-0.206-0.28-0.23c-0.213-0.04-0.417,0.101-0.456,0.313
				l-0.384,2.065l-2.587,2.587v-3.554l2.139-1.534c0.176-0.126,0.216-0.371,0.09-0.546c-0.126-0.176-0.37-0.216-0.546-0.09
				l-1.683,1.207v-0.767l0.926-1.345c0.122-0.178,0.078-0.422-0.1-0.544c-0.178-0.123-0.422-0.078-0.544,0.1l-0.281,0.409v-1.081
				c0-0.216-0.175-0.391-0.391-0.391s-0.391,0.175-0.391,0.391v1.415l-0.543-0.526c-0.155-0.15-0.403-0.146-0.553,0.009
				c-0.15,0.155-0.147,0.403,0.009,0.553l1.088,1.055v0.681l-1.468-1.154c-0.17-0.133-0.416-0.104-0.55,0.066
				c-0.133,0.17-0.104,0.416,0.066,0.55l1.952,1.534v3.501l-2.596-2.596l-0.238-2.78c-0.018-0.216-0.212-0.376-0.423-0.357
				c-0.215,0.018-0.375,0.208-0.356,0.423l0.159,1.854l-0.558-0.558l-0.065-1.625c-0.009-0.216-0.197-0.379-0.407-0.376
				c-0.216,0.009-0.384,0.191-0.376,0.407l0.031,0.778l-0.603-0.603c-0.153-0.153-0.401-0.153-0.553,0
				c-0.153,0.153-0.153,0.401,0,0.553l0.491,0.491l-0.478-0.065c-0.216-0.03-0.411,0.121-0.441,0.335
				c-0.029,0.214,0.121,0.411,0.335,0.441l1.497,0.203l0.652,0.652l-1.761-0.292c-0.212-0.035-0.415,0.109-0.45,0.322
				c-0.035,0.213,0.109,0.415,0.322,0.45l2.794,0.463c0.014,0.002,0.028,0.003,0.042,0.003l2.474,2.474h-3.716l-1.921-1.983
				c-0.151-0.155-0.398-0.159-0.553-0.009c-0.155,0.15-0.159,0.398-0.009,0.553l1.393,1.438h-0.959l-1.195-1.103
				c-0.158-0.146-0.406-0.137-0.553,0.022c-0.147,0.159-0.137,0.406,0.022,0.553l0.572,0.529h-0.854
				c-0.216,0-0.391,0.175-0.391,0.391s0.175,0.391,0.391,0.391h0.694l-0.384,0.292c-0.172,0.131-0.205,0.376-0.074,0.548
				c0.077,0.101,0.194,0.155,0.312,0.155c0.082,0,0.166-0.026,0.237-0.08l1.202-0.915h1.19l-1.547,1.643
				c-0.148,0.158-0.141,0.405,0.017,0.553c0.076,0.071,0.172,0.107,0.268,0.107c0.104,0,0.208-0.041,0.285-0.123l2.052-2.18h3.494
				l-2.642,2.642l-2.545,0.084c-0.216,0.007-0.385,0.188-0.378,0.404c0.007,0.216,0.17,0.387,0.404,0.378l1.709-0.056l-0.624,0.624
				l-1.625,0.065c-0.216,0.009-0.384,0.191-0.376,0.407c0.009,0.216,0.194,0.392,0.407,0.376l0.778-0.031l-0.603,0.604
				c-0.153,0.153-0.153,0.401,0,0.553c0.076,0.077,0.177,0.115,0.277,0.115c0.1,0,0.2-0.038,0.277-0.115l0.491-0.491l-0.065,0.478
				c-0.029,0.214,0.121,0.411,0.335,0.441c0.018,0.003,0.036,0.004,0.053,0.004c0.193,0,0.361-0.142,0.387-0.339l0.203-1.498
				l0.656-0.656l-0.332,2.038c-0.035,0.214,0.11,0.415,0.323,0.449c0.021,0.004,0.043,0.005,0.063,0.005
				c0.189,0,0.354-0.137,0.386-0.328l0.499-3.066c0.002-0.012-0.003-0.023-0.002-0.036l2.479-2.479v3.748l-2.003,2.253
				c-0.144,0.162-0.129,0.409,0.033,0.553c0.162,0.144,0.409,0.129,0.552-0.033l1.418-1.595v0.838l-1.103,1.195
				c-0.146,0.159-0.137,0.406,0.022,0.553c0.159,0.147,0.406,0.137,0.553-0.022l0.528-0.572v0.853c0,0.216,0.175,0.391,0.391,0.391
				s0.391-0.175,0.391-0.391v-0.694l0.292,0.384c0.077,0.101,0.194,0.154,0.312,0.154c0.082,0,0.166-0.026,0.237-0.08
				c0.172-0.131,0.205-0.376,0.074-0.548l-0.915-1.202v-0.93l1.181,1.635c0.076,0.106,0.196,0.162,0.317,0.162
				c0.079,0,0.16-0.024,0.229-0.074c0.175-0.127,0.215-0.371,0.088-0.546l-1.789-2.477c-0.007-0.01-0.018-0.014-0.026-0.023v-3.595
				l2.601,2.601l-0.042,2.728c-0.003,0.216,0.169,0.394,0.385,0.397c0.002,0,0.004,0,0.006,0c0.214,0,0.388-0.171,0.391-0.385
				l0.03-1.969l0.428,0.428l0.296,1.606c0.035,0.189,0.2,0.32,0.385,0.32c0.024,0,0.047-0.002,0.072-0.006
				c0.212-0.039,0.353-0.243,0.314-0.456l-0.09-0.488l0.764,0.764c0.076,0.077,0.177,0.115,0.277,0.115c0.1,0,0.2-0.038,0.277-0.115
				c0.153-0.153,0.153-0.401,0-0.553l-1.001-1.001l0.757-0.012c0.216-0.003,0.389-0.182,0.385-0.397
				c-0.003-0.216-0.192-0.369-0.398-0.385l-1.515,0.024l-0.481-0.481l1.855-0.222c0.214-0.026,0.368-0.221,0.342-0.435
				c-0.025-0.215-0.221-0.369-0.435-0.342l-2.465,0.296l-2.538-2.539h3.623l2.27,1.709c0.071,0.053,0.153,0.079,0.235,0.079
				c0.119,0,0.236-0.054,0.313-0.156c0.13-0.173,0.096-0.418-0.077-0.548l-1.439-1.084h0.36l1.345,0.926
				c0.068,0.047,0.145,0.069,0.222,0.069c0.124,0,0.247-0.059,0.323-0.169c0.122-0.178,0.078-0.422-0.1-0.544l-0.408-0.281h1.081
				c0.216,0,0.391-0.175,0.391-0.391S418.043,294.422,417.827,294.422z M413.197,289.525l0.01,0.638l-0.158,0.158L413.197,289.525z"
				/>
		</g>
	</g>
</g>
<g id="Backgorund_Simple" style="display:none;">
	<g style="display:inline;">
		<path style="fill:#407BFF;" d="M130.626,90.689c13.587-9.117,30.117-13.326,47.629-9.393c31.682,7.117,42.37,35.83,57.956,60.513
			c14.516,22.988,36.958,32.244,63.488,32.712c31.17,0.55,65.734-4.748,89.056,20.782c21.356,23.378,26.265,60.377,13.496,89.069
			c-17.335,38.95-62.204,56.269-102.047,59.936c-14.027,1.291-28.245,1.028-42.183-1.054
			c-47.913-7.159-91.856-33.969-121.855-71.762c-8.576-10.804-16.025-22.501-22.155-34.859
			c-14.158-28.544-23.066-63.479-16.618-95.566C101.458,120.84,113.781,101.992,130.626,90.689z"/>
		<path style="opacity:0.9;fill:#FFFFFF;" d="M130.626,90.689c13.587-9.117,30.117-13.326,47.629-9.393
			c31.682,7.117,42.37,35.83,57.956,60.513c14.516,22.988,36.958,32.244,63.488,32.712c31.17,0.55,65.734-4.748,89.056,20.782
			c21.356,23.378,26.265,60.377,13.496,89.069c-17.335,38.95-62.204,56.269-102.047,59.936c-14.027,1.291-28.245,1.028-42.183-1.054
			c-47.913-7.159-91.856-33.969-121.855-71.762c-8.576-10.804-16.025-22.501-22.155-34.859
			c-14.158-28.544-23.066-63.479-16.618-95.566C101.458,120.84,113.781,101.992,130.626,90.689z"/>
	</g>
</g>
<g id="Shadow_1_">
	<ellipse id="_x3C_Path_x3E__359_" style="fill:#F5F5F5;" cx="250" cy="416.238" rx="193.889" ry="11.323"/>
</g>
<g id="Frozen_figure">
	<g>
		<g>
			<g>
				<g>
					<path style="fill:#407BFF;" d="M343.24,205.742c0,0-12.26,6.46-16.48,4.3c-0.59-0.3-1.09-0.62-1.55-0.94
						c-2.88-1.98-4.27-3.85-14.99-0.33c-1.98,0.65-3.85,1.02-5.59,1.17c-0.71,0.07-1.4,0.1-2.07,0.1c-0.31,0-0.62-0.01-0.93-0.02
						c-0.18-0.01-0.37-0.02-0.55-0.03c-0.24-0.01-0.47-0.03-0.7-0.06c-0.95-0.09-1.83-0.24-2.66-0.42
						c-0.17-0.04-0.34-0.08-0.51-0.12c-0.48-0.13-0.94-0.26-1.37-0.39c-0.4-0.13-0.79-0.27-1.16-0.41c-1.25-0.48-2.29-1.01-3.1-1.48
						c-1.31-0.76-2.01-1.37-2.01-1.37s7.25-5.94,0.4-14.11c-6.86-8.18-12.4-13.72-4.75-20.11c7.65-6.38,10.42-8.51,8.3-15.48
						c-2.11-6.98-0.78-9.77,5.41-12.15c0.51-0.19,0.97-0.36,1.4-0.51c0.21-0.08,0.41-0.15,0.61-0.21c0.96-0.33,1.69-0.56,2.27-0.77
						l0.01-0.01c0.3-0.11,0.57-0.22,0.8-0.34c0.08-0.05,0.15-0.09,0.22-0.13c0.01-0.01,0.02-0.01,0.02-0.01
						c0.11-0.07,0.21-0.14,0.31-0.22c0.06-0.04,0.11-0.09,0.17-0.14c0.27-0.24,0.5-0.54,0.74-0.95c0.15-0.24,0.3-0.52,0.46-0.85
						c0.11-0.21,0.22-0.45,0.33-0.71c0.12-0.24,0.23-0.51,0.36-0.79c0.14-0.32,0.29-0.67,0.45-1.05c0,0-3.93-14.14,13.8-13.61
						c14.01,0.42,14.07,9.24,13.56,15.33c-0.14,1.61-0.31,3.03-0.28,4.05c0.06,2.06,2.47,4.81,4.91,7.71
						c3.34,3.96,6.74,8.21,4.3,11.41c-4.22,5.54-0.39,13.98,3.7,19.52c4.08,5.54-3.3,15.03-5.15,18.99
						C340.08,204.551,343.24,205.742,343.24,205.742z"/>
					<path style="opacity:0.5;fill:#FFFFFF;" d="M343.24,205.742c0,0-12.26,6.46-16.48,4.3c-0.59-0.3-1.09-0.62-1.55-0.94
						c-2.88-1.98-4.27-3.85-14.99-0.33c-1.98,0.65-3.85,1.02-5.59,1.17c-0.71,0.07-1.4,0.1-2.07,0.1c-0.31,0-0.62-0.01-0.93-0.02
						c-0.18-0.01-0.37-0.02-0.55-0.03c-0.24-0.01-0.47-0.03-0.7-0.06c-0.95-0.09-1.83-0.24-2.66-0.42
						c-0.17-0.04-0.34-0.08-0.51-0.12c-0.48-0.13-0.94-0.26-1.37-0.39c-0.4-0.13-0.79-0.27-1.16-0.41c-1.25-0.48-2.29-1.01-3.1-1.48
						c-1.31-0.76-2.01-1.37-2.01-1.37s7.25-5.94,0.4-14.11c-1.27-1.52-2.5-2.95-3.61-4.31c-4.85-5.96-7.37-10.6-1.14-15.8
						c7.65-6.38,10.42-8.51,8.3-15.48c-2.11-6.98-0.78-9.77,5.41-12.15c0.51-0.19,0.97-0.36,1.4-0.51c0.21-0.08,0.41-0.15,0.61-0.21
						c0.96-0.33,1.69-0.56,2.27-0.77l0.01-0.01c0.3-0.11,0.57-0.22,0.8-0.34c0.08-0.05,0.15-0.09,0.22-0.13
						c0.01-0.01,0.02-0.01,0.02-0.01c0.11-0.07,0.21-0.14,0.31-0.22c0.06-0.04,0.11-0.09,0.17-0.14c0.27-0.24,0.5-0.54,0.74-0.95
						c0.15-0.24,0.3-0.52,0.46-0.85c0.11-0.21,0.22-0.45,0.33-0.71c0.12-0.24,0.23-0.51,0.36-0.79c0.14-0.32,0.29-0.67,0.45-1.05
						c0,0-3.93-14.14,13.8-13.61c14.01,0.42,14.07,9.24,13.56,15.33c-0.14,1.61-0.31,3.03-0.28,4.05c0.06,2.06,2.47,4.81,4.91,7.71
						c3.34,3.96,6.74,8.21,4.3,11.41c-4.22,5.54-0.39,13.98,3.7,19.52c4.08,5.54-3.3,15.03-5.15,18.99
						C340.08,204.551,343.24,205.742,343.24,205.742z"/>
				</g>
				<path style="opacity:0.2;fill:#FFFFFF;" d="M329.16,177.521c3.4,2.44,7.69,10.42,0.51,16.13c-7.18,5.71-5.09,5.96-3.41,11.1
					c0.46,1.41-0.06,2.91-1.05,4.35c-2.88-1.98-4.27-3.85-14.99-0.33c-1.98,0.65-3.85,1.02-5.59,1.17
					c3.37-4.41,0.73-6.67,2.81-10.18c2.84-4.79,17.93-15.19,9.56-20.17c-8.37-4.98,18.86-22.51,10.99-26.07
					c-5.13-2.32,1.21-9.69,6.45-14.6c-0.14,1.61-0.31,3.03-0.28,4.05c0.06,2.06,2.47,4.81,4.91,7.71c-5.18,5.2-1.57,7.94-1.14,10.62
					C338.41,164.331,325.77,175.081,329.16,177.521z"/>
				<path style="opacity:0.2;fill:#FFFFFF;" d="M303.21,158.861c-4.14,5.34-18.98,13.1-13.24,16.14c4.56,2.43,1.23,7.18-3.61,12.32
					c-4.85-5.96-7.37-10.6-1.14-15.8c7.65-6.38,10.42-8.51,8.3-15.48c-2.11-6.98-0.78-9.77,5.41-12.15c0.51-0.19,0.97-0.36,1.4-0.51
					c0.21-0.08,0.41-0.15,0.61-0.21c0.96-0.33,1.69-0.56,2.27-0.77c0,0-8.1,7.16-6.32,9.93
					C298.67,155.102,307.35,153.521,303.21,158.861z"/>
			</g>
			<g>
				<path style="fill:#407BFF;" d="M294.979,218.058l-6.067,17.454c0,0-10.022,5.959-26.11,24.423
					c-16.088,18.464-5.275,48.267-5.275,48.267h104.703l-15.824-18.837c0,0-11.341-62.204-18.42-70.174
					C320.907,211.22,309.487,209.673,294.979,218.058z"/>
				<path style="opacity:0.7;fill:#FFFFFF;" d="M294.979,218.058l-6.067,17.454c0,0-10.022,5.959-26.11,24.423
					c-16.088,18.464-5.275,48.267-5.275,48.267h104.703l-15.824-18.837c0,0-11.341-62.204-18.42-70.174
					C320.907,211.22,309.487,209.673,294.979,218.058z"/>
			</g>
			<g>
				<path style="fill:#407BFF;" d="M303.934,162.917c0,0-20.032-4.255-29.527-10.584c-9.494-6.329-25.652-28.374-25.652-28.374
					L244,128.085c0,0,15.11,27.362,24.077,33.058c8.967,5.696,31.385,15.718,31.385,15.718L303.934,162.917z"/>
				<path style="opacity:0.6;fill:#FFFFFF;" d="M303.934,162.917c0,0-20.032-4.255-29.527-10.584
					c-9.494-6.329-25.652-28.374-25.652-28.374L244,128.085c0,0,15.11,27.362,24.077,33.058
					c8.967,5.696,31.385,15.718,31.385,15.718L303.934,162.917z"/>
			</g>
			<path style="fill:#407BFF;" d="M294.854,170.492c12.397,6.136,31.393,4.706,41.964,3.227c0.628-1.913,1.314-3.942,2.058-6.087
				c-4.483-1.43-9.053-2.532-13.691-3.305c-4.899-0.87-9.856-1.391-14.822-1.565c-6.425-0.048-13.798,0.676-13.798,0.676
				S295.511,163.69,294.854,170.492z"/>
			<g>
				<path style="fill:#407BFF;" d="M294.979,212.914l33.007,2.856c0.783-12.271,1.565-20.185,8.831-42.051
					c0.628-1.913,1.314-3.942,2.058-6.087c-4.483-1.43-9.053-2.532-13.691-3.305c-4.899-0.87-9.856-1.391-14.822-1.565
					c-6.425-0.048-13.798,0.676-13.798,0.676s-1.053,0.251-1.71,7.053C294.245,176.889,293.656,189.666,294.979,212.914z"/>
				<path style="opacity:0.6;fill:#FFFFFF;" d="M294.979,212.914l33.007,2.856c0.783-12.271,1.565-20.185,8.831-42.051
					c0.628-1.913,1.314-3.942,2.058-6.087c-4.483-1.43-9.053-2.532-13.691-3.305c-4.899-0.87-9.856-1.391-14.822-1.565
					c-6.425-0.048-13.798,0.676-13.798,0.676s-1.053,0.251-1.71,7.053C294.245,176.889,293.656,189.666,294.979,212.914z"/>
			</g>
			<g>
				<path style="fill:#407BFF;" d="M313.084,170.055c8.135-1.041,10.579-4.516,10.579-4.516c-5.161-4.87-0.873-13.308-0.873-13.308
					l-9.792,1.828c0.257,1.618,0.367,2.975,0.383,4.122c0.074,5.943-2.613,6.001-2.613,6.001
					C309.049,167.402,313.084,170.055,313.084,170.055z"/>
				<path style="opacity:0.6;fill:#FFFFFF;" d="M313.084,170.055c8.135-1.041,10.579-4.516,10.579-4.516
					c-5.161-4.87-0.873-13.308-0.873-13.308l-9.792,1.828c0.257,1.618,0.367,2.975,0.383,4.122c0.074,5.943-2.613,6.001-2.613,6.001
					C309.049,167.402,313.084,170.055,313.084,170.055z"/>
			</g>
			<path style="opacity:0.2;enable-background:new    ;" d="M312.998,154.059c0.257,1.618,0.367,2.975,0.383,4.122
				c4.72-1.094,9.409-5.95,9.409-5.95L312.998,154.059z"/>
			<g>
				<path style="fill:#407BFF;" d="M321.727,126.96c-8.294-1.966-12.017,1.842-14.65,10.246
					c-3.291,10.502-2.721,18.652,8.191,18.829C330.087,156.275,335.502,130.225,321.727,126.96z"/>
				<path style="opacity:0.6;fill:#FFFFFF;" d="M321.26,154.531c-1.76,0.98-3.77,1.54-5.99,1.5c-0.52-0.01-1.02-0.03-1.49-0.08
					c-9.47-0.87-9.83-8.74-6.7-18.75c2.63-8.4,6.35-12.21,14.65-10.24c2.16,0.51,3.85,1.58,5.1,3.03c1.26,1.44,2.08,3.27,2.49,5.27
					C330.77,142.081,327.58,151.031,321.26,154.531z"/>
				<path style="opacity:0.3;" d="M312.549,138.014c0,0-1.663,1.894-3.229,2.868c0,0,0.443,1.296,1.964,1.456L312.549,138.014z"/>
				<path style="opacity:0.3;" d="M319.074,137.617c0.011-0.005,0.02-0.003,0.031-0.009l-1.322-0.964c0,0,0.214,0.727,0.669,0.972
					c-0.29,0.155-0.551,0.481-0.666,0.923c-0.177,0.678,0.045,1.323,0.497,1.441c0.452,0.118,0.962-0.335,1.139-1.013
					C319.577,138.375,319.415,137.83,319.074,137.617z"/>
				<path style="opacity:0.3;" d="M310.688,135.27c0.011-0.005,0.02-0.003,0.031-0.009l-1.322-0.964c0,0,0.214,0.727,0.669,0.972
					c-0.29,0.155-0.55,0.481-0.666,0.923c-0.177,0.678,0.045,1.323,0.497,1.441c0.452,0.118,0.962-0.335,1.139-1.012
					C311.191,136.029,311.029,135.483,310.688,135.27z"/>
				<path style="opacity:0.3;" d="M322.853,134.779c-0.974-2.016-3.482-2.298-3.588-2.309c-0.194-0.027-0.376,0.124-0.397,0.322
					s0.123,0.377,0.322,0.398c0.022,0.003,2.215,0.256,3.012,1.904c0.063,0.129,0.192,0.204,0.327,0.204
					c0.053,0,0.107-0.012,0.157-0.036C322.865,135.176,322.94,134.959,322.853,134.779z"/>
				<path style="opacity:0.3;" d="M309.689,130.61c-0.188,0.069-0.284,0.278-0.214,0.465c0.069,0.189,0.28,0.281,0.465,0.214
					c1.915-0.708,3.094,0.033,3.143,0.064c0.061,0.041,0.13,0.06,0.198,0.06c0.117,0,0.232-0.057,0.302-0.162
					c0.111-0.167,0.065-0.392-0.101-0.503C313.421,130.709,311.965,129.767,309.689,130.61z"/>
				<g>
					<path style="opacity:0.3;" d="M311.72,145.888c0.242,1.114,0.285,3.11,0.285,3.11c0.182,0.029,0.363,0.058,0.546,0.077
						c2.472,0.328,3.727-0.337,4.369-1.173c0.349-0.459,0.511-0.976,0.585-1.406c0.091-0.496,0.043-0.87,0.043-0.87
						c-1.414,0.609-3.743,0.481-4.983,0.36C312.045,145.942,311.72,145.888,311.72,145.888z"/>
					<path style="opacity:0.2;fill:#FFFFFF;" d="M312.565,145.987l0.108,0.915c2.329,0.303,4.01,0.204,4.833-0.405
						c0.091-0.496,0.043-0.87,0.043-0.87C316.134,146.236,313.806,146.107,312.565,145.987z"/>
					<path style="opacity:0.1;fill:#FFFFFF;" d="M312.551,149.075c2.472,0.328,3.727-0.337,4.369-1.173
						c-0.847-0.079-1.876-0.081-2.817,0.18C313.383,148.278,312.896,148.664,312.551,149.075z"/>
				</g>
				<g>
					<path style="fill:#407BFF;" d="M327.479,143.089c0,0-2.263-7.734-0.429-12.856c0,0-14.846-10.61-19.611,5.881
						c0,0,1.905-15.195,16.242-12.146c14.314,3.044,9.333,23.895,0.496,28.365C324.177,152.333,328.868,147.919,327.479,143.089z"/>
					<path style="opacity:0.5;fill:#FFFFFF;" d="M327.479,143.089c0,0-2.263-7.734-0.429-12.856c0,0-14.846-10.61-19.611,5.881
						c0,0,1.905-15.195,16.242-12.146c14.314,3.044,9.333,23.895,0.496,28.365C324.177,152.333,328.868,147.919,327.479,143.089z"/>
				</g>
				<g>
					<path style="fill:#407BFF;" d="M326.289,124.805c0,0-4.08-3.394-10.476-3.263c-6.396,0.132-9.781,1.385-11.88,5.473
						c-2.098,4.088,0.811,8.334,0.935,11.306s-3.112,5.164-5.479,5.401c0,0,2.907,1.031,6.996-0.29
						c4.089-1.32,0.167-6.072,1.435-9.135c1.268-3.063,3.774-3.924,7.862-3.46c4.088,0.463,10.418,1.057,11.868-1.185
						C329,127.41,326.289,124.805,326.289,124.805z"/>
					<path style="opacity:0.5;fill:#FFFFFF;" d="M327.55,129.652c-1.45,2.24-7.78,1.65-11.87,1.19c-4.09-0.47-6.59,0.39-7.86,3.46
						c-1.27,3.06,2.65,7.81-1.44,9.13c-4.08,1.32-6.99,0.29-6.99,0.29c0.34-0.04,0.71-0.11,1.07-0.24c2.17-0.65,4.51-2.62,4.41-5.16
						c-0.13-2.97-3.03-7.22-0.94-11.31c2.1-4.08,5.49-5.34,11.88-5.47c6.4-0.13,10.48,3.26,10.48,3.26s1.02,0.98,1.47,2.25
						C328.05,127.862,328.11,128.781,327.55,129.652z"/>
				</g>
				<g>
					<path style="fill:#407BFF;" d="M325.71,144.518c0.372-1.322,2.286-3.256,4.705-2.396c2.504,0.89,2.478,6.457-4.216,6.21
						C325.238,148.297,324.933,147.277,325.71,144.518z"/>
					<path style="opacity:0.6;fill:#FFFFFF;" d="M325.71,144.518c0.372-1.322,2.286-3.256,4.705-2.396
						c2.504,0.89,2.478,6.457-4.216,6.21C325.238,148.297,324.933,147.277,325.71,144.518z"/>
				</g>
				<path style="opacity:0.2;fill:#FFFFFF;" d="M326.264,138.014c0,0-8.003,6.825-5.386,7.111c2.617,0.286-1.537,4.834-5.097,7.208
					c-3.56,2.374,1.543,1.089,1.711,1.583c0.168,0.494-1.415,1.29-1.415,1.29s2.062,0.193,3.404-0.697
					c1.343-0.89,1.13-1.343,0-1.661c-1.13-0.317,5.497-6.131,5.299-7.724c-0.198-1.593-2.495-0.407-1.891-1.643
					c0.605-1.236,3.374-3.306,3.374-3.306V138.014z"/>
				<path style="opacity:0.2;fill:#FFFFFF;" d="M320.392,122.713c0,0-6.031,0.742-7.844,2.423c-1.813,1.681,0.576,1.484,0,2.621
					c-0.576,1.137-4.681,2.126-5.769,4.451c-1.088,2.324-0.495,3.56,0,4.995c0.494,1.434-1.978,2.974-1.978,2.974
					s1.533-1.59,0-4.458c0,0-2.72-1.476-0.346-4.274c2.374-2.798,4.7-3.144,4.996-3.984c0.296-0.841-2.127-0.692-1.484-2.027
					c0.643-1.335,5.405-3.146,7.813-3.462C318.188,121.656,320.392,122.713,320.392,122.713z"/>
			</g>
			<g>
				<path style="fill:#407BFF;" d="M248.755,123.959c-1.315-2.285-9.03-7.823-11.205-8.417c-2.176-0.593-6.33,7.141-5.538,8.417
					c0.791,1.276,9.873,6.302,12.633,5.273C249.672,127.357,248.755,123.959,248.755,123.959z"/>
				<path style="opacity:0.6;fill:#FFFFFF;" d="M248.755,123.959c-1.315-2.285-9.03-7.823-11.205-8.417
					c-2.176-0.593-6.33,7.141-5.538,8.417c0.791,1.276,9.873,6.302,12.633,5.273C249.672,127.357,248.755,123.959,248.755,123.959z"
					/>
			</g>
			<g>
				<path style="fill:#407BFF;" d="M397.993,199.842c2.586-0.514,11.833,1.647,13.712,2.894c1.879,1.247-1.208,9.465-2.689,9.71
					c-1.481,0.244-11.243-3.283-12.286-6.038C394.832,201.39,397.993,199.842,397.993,199.842z"/>
				<path style="opacity:0.6;fill:#FFFFFF;" d="M397.993,199.842c2.586-0.514,11.833,1.647,13.712,2.894
					c1.879,1.247-1.208,9.465-2.689,9.71c-1.481,0.244-11.243-3.283-12.286-6.038C394.832,201.39,397.993,199.842,397.993,199.842z"
					/>
			</g>
			<g>
				<path style="fill:#407BFF;" d="M336.15,166.806c7.817,0.758,24.828,22.516,27.796,24.098c2.967,1.582,34.022,9.297,34.022,9.297
					v5.538c0,0-33.626-2.769-40.154-6.725c-6.527-3.956-17.712-17.725-25.867-20.137C323.791,176.465,336.15,166.806,336.15,166.806
					z"/>
				<path style="opacity:0.6;fill:#FFFFFF;" d="M336.15,166.806c7.817,0.758,24.828,22.516,27.796,24.098
					c2.967,1.582,34.022,9.297,34.022,9.297v5.538c0,0-33.626-2.769-40.154-6.725c-6.527-3.956-17.712-17.725-25.867-20.137
					C323.791,176.465,336.15,166.806,336.15,166.806z"/>
			</g>
			<g>
				<path style="fill:#407BFF;" d="M294.182,175.002c0,0,3.697-4.735,7.521-3.153c3.824,1.583,5.076,5.802,10.846,5.011
					c5.77-0.791,9.726-3.918,13.814-2.618c4.088,1.3,7.799,7.785,7.799,7.785l-6.176,33.743l-33.007-2.856
					C294.979,212.914,292.331,179.21,294.182,175.002z"/>
				<path style="opacity:0.7;fill:#FFFFFF;" d="M294.182,175.002c0,0,3.697-4.735,7.521-3.153c3.824,1.583,5.076,5.802,10.846,5.011
					c5.77-0.791,9.726-3.918,13.814-2.618c4.088,1.3,7.799,7.785,7.799,7.785l-6.176,33.743l-33.007-2.856
					C294.979,212.914,292.331,179.21,294.182,175.002z"/>
			</g>
			<g>
				<path style="fill:#407BFF;" d="M294.979,212.914c0,0,3.809-4.502,4.409-4.058c0.6,0.444,1.416,2.061,3.514,2.439
					c2.097,0.378,0.816-2.418,4.065-2.47c3.25-0.052,2.952,3.178,4.58,3.277s3.059-3.954,4.981-3.246
					c1.922,0.708,2.82,3.406,4.349,3.903c1.529,0.497,1.331-1.835,3.606-2.278c2.275-0.443,3.503,5.288,3.503,5.288l-0.029,4.96
					c0,0-0.616-2.886-2.688-2.542c-2.072,0.344-3.59,2.863-5.204,2.394c-1.615-0.468-1.238-4.735-3.536-4.316
					c-2.298,0.419-4.538,3.057-6.187,3.057c-1.649,0-1.933-2.948-3.373-3.057c-1.44-0.108-3.814,1.051-5.133,1.922
					c-1.319,0.871-3.692-1.922-3.692-1.922l-3.163,1.792V212.914z"/>
				<path style="opacity:0.8;fill:#FFFFFF;" d="M294.979,212.914c0,0,3.809-4.502,4.409-4.058c0.6,0.444,1.416,2.061,3.514,2.439
					c2.097,0.378,0.816-2.418,4.065-2.47c3.25-0.052,2.952,3.178,4.58,3.277s3.059-3.954,4.981-3.246
					c1.922,0.708,2.82,3.406,4.349,3.903c1.529,0.497,1.331-1.835,3.606-2.278c2.275-0.443,3.503,5.288,3.503,5.288l-0.029,4.96
					c0,0-0.616-2.886-2.688-2.542c-2.072,0.344-3.59,2.863-5.204,2.394c-1.615-0.468-1.238-4.735-3.536-4.316
					c-2.298,0.419-4.538,3.057-6.187,3.057c-1.649,0-1.933-2.948-3.373-3.057c-1.44-0.108-3.814,1.051-5.133,1.922
					c-1.319,0.871-3.692-1.922-3.692-1.922l-3.163,1.792V212.914z"/>
			</g>
			<path style="opacity:0.2;fill:#FFFFFF;" d="M329.163,226.414c0.101,5.831-30.756,31.678-28.646,35.37
				c2.11,3.692,9.631-1.846,7.585,3.692c-2.046,5.539-28.42,30.545-24.991,32.415c3.429,1.87-2.374,8.005-2.374,8.005l10.549,0.986
				c0,0,6.33-3.913,5.407-7.099c-0.923-3.186-11.473,2.479,1.714-11.035c13.187-13.514,25.055-23.542,21.363-28.814
				c-3.692-5.272-8.687-0.261-5.926-5.272c2.761-5.011,15.157-14.003,18.849-20.98L329.163,226.414z"/>
			<path style="opacity:0.2;fill:#FFFFFF;" d="M334.162,166.806c0,0-3.975,1.611-3.052,2.075s3.486,0.542,1.456,2.114
				c-2.03,1.572-3.958,3.626-3.958,3.626s2.216,1.542,2.777,2.899c0,0,3.945-3.165,5.923-4.747s-1.451-3.432-1.055-3.892
				c0.396-0.46,1.674-0.592,1.674-0.592S337.478,167.037,334.162,166.806z"/>
			<path style="opacity:0.2;fill:#FFFFFF;" d="M327.286,176.861c0,0-7.828,6.33-7.804,7.912c0.024,1.582,2.9,1.582,1.396,3.824
				c-1.504,2.242-12.38,9.758-11.557,11.604c0.823,1.846-6.826,9.494-6.826,9.494l-2.374-1.846c0,0,6.198-5.275,5.802-6.593
				c-0.396-1.319-3.429-2.374-1.187-4.088c2.242-1.714,12.508-8.571,11.793-9.758c-0.716-1.187-5.102-1.187-3.964-3.429
				c1.138-2.242,10.325-8.979,10.325-8.979S326.231,174.092,327.286,176.861z"/>
			<path style="opacity:0.2;fill:#FFFFFF;" d="M288.121,159.322c0,0-6.198,0.345-5.275,1.821c0.923,1.476-5.934,3.982-5.934,3.982
				l-2.945-1.451c0,0,4.923-1.978,4.66-3.297c-0.264-1.319,0.264-2.242,4.352-2.901L288.121,159.322z"/>
			<path style="opacity:0.2;fill:#FFFFFF;" d="M243.022,120.184c0,0-4.747,0.318-3.824,1.728c0.923,1.41-3.956,3.125-3.956,3.125
				s-2.769-0.809-2.637-1.46s1.846-3.393,1.846-3.393s1.771,1.345,2.27,0c0.499-1.345,0.99-2.004,3.646-2.532L243.022,120.184z"/>
			<path style="opacity:0.2;fill:#FFFFFF;" d="M380.429,196.773c0,0-2.769,0.791-2.11,1.846c0.659,1.055,2.637,1.451-1.319,3.429
				h4.352c0,0,3.561-1.533,2.901-2.283c-0.659-0.75-3.297-1.41-2.11-1.805c1.187-0.396,2.191-0.527,2.191-0.527L380.429,196.773z"/>
		</g>
		<g>
			<g>
				<path style="fill:#407BFF;" d="M378.98,350.311c0,12.48,5.14,48.74,4.75,59.1H234.58c0,0-7.86-21.76-2.77-37.56
					c5.1-15.8-6.72-57.32-5.54-62.07c1.07-4.23,22.32-10.39,26.85-11.65c0.15-0.04,0.28-0.08,0.39-0.11c0.02,0,0.03-0.01,0.05-0.01
					c0.08-0.03,0.15-0.05,0.21-0.06c0.13-0.04,0.2-0.06,0.2-0.06s13.05,6.35,22.94,6.35c9.89,0,45.38-0.39,52.76-0.39
					c7.37,0,29.49,0.69,29.49,0.69s19.78,0.09,25.42,3.17l0.01,0.01c0.27,0.15,0.52,0.31,0.72,0.48c0.17,0.14,0.32,0.31,0.44,0.52
					C388.84,313.781,378.98,338.322,378.98,350.311z"/>
				<path style="opacity:0.5;fill:#FFFFFF;" d="M378.98,350.311c0,12.48,5.14,48.74,4.75,59.1H234.58c0,0-7.86-21.76-2.77-37.56
					c5.1-15.8-6.72-57.32-5.54-62.07c1.07-4.23,22.32-10.39,26.85-11.65c0.15-0.04,0.28-0.08,0.39-0.11c0.02,0,0.03-0.01,0.05-0.01
					c0.08-0.03,0.15-0.05,0.21-0.06c0.13-0.04,0.2-0.06,0.2-0.06s13.05,6.35,22.94,6.35c9.89,0,45.38-0.39,52.76-0.39
					c7.37,0,29.49,0.69,29.49,0.69s19.78,0.09,25.42,3.17l0.01,0.01c0.27,0.15,0.52,0.31,0.72,0.48c0.17,0.14,0.32,0.31,0.44,0.52
					C388.84,313.781,378.98,338.322,378.98,350.311z"/>
			</g>
			<path style="opacity:0.3;fill:#FFFFFF;" d="M385.75,308.721c0,1.64-9.65,4.97-23.52,4.54c-15.56-0.48-69.1,9.58-73.05,9.83
				c-3.96,0.25-60.53-11.33-59.74-14.89c0.7-3.16,19.45-8.82,23.68-10.07c0.15-0.04,0.28-0.08,0.39-0.11c0.02,0,0.03-0.01,0.05-0.01
				c0.08-0.03,0.15-0.05,0.21-0.06c0.13-0.04,0.2-0.06,0.2-0.06s13.05,6.35,22.94,6.35c9.89,0,45.38-0.39,52.76-0.39
				c7.37,0,29.49,0.69,29.49,0.69s19.78,0.09,25.42,3.17l0.01,0.01c0.29,0.23,0.53,0.39,0.72,0.48
				C385.61,308.341,385.75,308.522,385.75,308.721z"/>
		</g>
		<path style="opacity:0.2;fill:#FFFFFF;" d="M289.18,323.091c-1.982,6.868,5.274,49.934,5.8,62.027
			c0.526,12.094,1.713,20.321,1.713,20.321l-59.841,1.951c0,0-8.203-16.427-4.247-28.731c3.956-12.305,8.125-15.641,3.866-22.979
			c-4.258-7.339-7.039-42.42-7.039-42.42s-1.058-1.855,10.491,1.073C251.473,317.261,289.18,323.091,289.18,323.091z"/>
		<path style="opacity:0.1;fill:#FFFFFF;" d="M357.615,315.441c0,0-20.468,27.535-18.74,34.873c1.729,7.338,12.513-1.6,0,16.319
			c-12.513,17.92-19.535,23.533-18.002,28.045c1.533,4.512-4.345,12.713-4.345,12.713h22.347c0,0,9.961-7.581,9.405-9.473
			c-0.556-1.892-11.494-0.379,2.481-15.575c13.975-15.196,21.522-28.013,12.803-31.89c-8.719-3.878,9.875-24.211,14.226-35.011
			C377.791,315.441,362.47,317.176,357.615,315.441z"/>
		<path style="opacity:0.2;fill:#FFFFFF;" d="M359.16,304.542c0,0-0.36,3.4-5.37,2.61c-5.01-0.8-22.15,0.79-28.57,3.34
			c-6.42,2.56-14.68,0.61-22.01-2.29c-7.33-2.9-17.73,0-31.44-0.26c-13.72-0.27-17.8-10.05-17.8-10.05s13.05,6.35,22.94,6.35
			c9.89,0,45.38-0.39,52.76-0.39C337.04,303.852,359.16,304.542,359.16,304.542z"/>
		<g>
			<polygon style="fill:#407BFF;" points="214.933,409.97 223.634,401.244 240.354,405.607 244.508,409.97 230.229,413.135 			"/>
			<polygon style="opacity:0.5;fill:#FFFFFF;" points="214.933,409.97 223.634,401.244 240.354,405.607 244.508,409.97 
				230.229,413.135 			"/>
			<polygon style="opacity:0.2;fill:#FFFFFF;" points="223.634,401.244 229.94,407.19 237.508,406.725 230.571,409.179 
				230.229,413.135 214.933,409.97 			"/>
		</g>
		<g>
			<polygon style="fill:#407BFF;" points="288.646,410.172 297.346,401.445 314.066,405.809 318.22,410.172 303.941,413.337 			"/>
			<polygon style="opacity:0.5;fill:#FFFFFF;" points="288.646,410.172 297.346,401.445 314.066,405.809 318.22,410.172 
				303.941,413.337 			"/>
			<polygon style="opacity:0.2;fill:#FFFFFF;" points="297.346,401.445 303.652,407.391 311.22,406.926 304.284,409.381 
				303.941,413.337 288.646,410.172 			"/>
		</g>
		<g>
			<polygon style="fill:#407BFF;" points="253.026,413.569 257.376,409.206 265.736,411.387 267.813,413.569 260.673,415.151 			"/>
			<polygon style="opacity:0.5;fill:#FFFFFF;" points="253.026,413.569 257.376,409.206 265.736,411.387 267.813,413.569 
				260.673,415.151 			"/>
			<polygon style="opacity:0.2;fill:#FFFFFF;" points="257.376,409.206 260.529,412.178 264.313,411.946 260.845,413.173 
				260.673,415.151 253.026,413.569 			"/>
		</g>
		<g>
			<polygon style="fill:#407BFF;" points="202,406.061 206.35,401.698 214.71,403.879 216.787,406.061 209.648,407.644 			"/>
			<polygon style="opacity:0.5;fill:#FFFFFF;" points="202,406.061 206.35,401.698 214.71,403.879 216.787,406.061 209.648,407.644 
							"/>
			<polygon style="opacity:0.2;fill:#FFFFFF;" points="206.35,401.698 209.503,404.671 213.287,404.438 209.819,405.666 
				209.648,407.644 202,406.061 			"/>
		</g>
		<g>
			<polygon style="fill:#407BFF;" points="366.184,409.97 374.885,401.244 391.605,405.607 395.759,409.97 381.479,413.135 			"/>
			<polygon style="opacity:0.5;fill:#FFFFFF;" points="366.184,409.97 374.885,401.244 391.605,405.607 395.759,409.97 
				381.479,413.135 			"/>
			<polygon style="opacity:0.2;fill:#FFFFFF;" points="374.885,401.244 381.19,407.19 388.759,406.725 381.822,409.179 
				381.479,413.135 366.184,409.97 			"/>
		</g>
		<g>
			<polygon style="fill:#407BFF;" points="232.857,271.603 232.857,266.648 237.508,268.126 237.508,272.967 			"/>
			<polygon style="fill:#407BFF;" points="253.561,253.453 253.972,249.977 256.593,249.977 255.077,254.524 			"/>
			<polygon style="fill:#407BFF;" points="202,255.406 202,253.452 203.846,252.839 204.901,255.406 			"/>
			<polygon style="fill:#407BFF;" points="213.151,291.586 214.425,288.498 217.801,288.498 217.801,290.576 215.462,292.477 			"/>
			<polygon style="fill:#407BFF;" points="244,338.11 249.461,335.736 252.234,339.429 248.117,341.903 244.508,341.903 			"/>
			<polygon style="fill:#407BFF;" points="220.464,364.747 220.464,362.374 223.126,361.416 224.154,363.082 			"/>
			<g style="opacity:0.5;">
				<polygon style="fill:#FFFFFF;" points="232.857,271.603 232.857,266.648 237.508,268.126 237.508,272.967 				"/>
				<polygon style="fill:#FFFFFF;" points="253.561,253.453 253.972,249.977 256.593,249.977 255.077,254.524 				"/>
				<polygon style="fill:#FFFFFF;" points="202,255.406 202,253.452 203.846,252.839 204.901,255.406 				"/>
				<polygon style="fill:#FFFFFF;" points="213.151,291.586 214.425,288.498 217.801,288.498 217.801,290.576 215.462,292.477 				
					"/>
				<polygon style="fill:#FFFFFF;" points="244,338.11 249.461,335.736 252.234,339.429 248.117,341.903 244.508,341.903 				"/>
				<polygon style="fill:#FFFFFF;" points="220.464,364.747 220.464,362.374 223.126,361.416 224.154,363.082 				"/>
			</g>
			<g style="opacity:0.2;">
				<polygon style="fill:#FFFFFF;" points="232.857,271.603 232.857,266.648 237.508,268.126 				"/>
				<polygon style="fill:#FFFFFF;" points="253.561,253.453 253.972,249.977 256.593,249.977 				"/>
				<polygon style="fill:#FFFFFF;" points="202,255.406 202,253.452 203.846,252.839 				"/>
				<polygon style="fill:#FFFFFF;" points="213.151,291.586 214.425,288.498 217.801,288.498 				"/>
				<polygon style="fill:#FFFFFF;" points="244,338.11 249.461,335.736 244.508,341.903 				"/>
				<polygon style="fill:#FFFFFF;" points="220.464,364.747 220.464,362.374 223.126,361.416 				"/>
			</g>
		</g>
	</g>
</g>
<g id="Character">
	<g id="_x3C_Group_x3E__2_">
		<g>
			<g>
				<path style="fill:#263238;" d="M190.46,274.02c11.683,8.072,17.221,33.363,22.496,33.113
					c5.275-0.25,31.044-18.329,31.044-18.329l5.879,5.419c0,0-22.981,26.296-38.506,28.22
					c-15.524,1.924-16.608-19.013-34.201-29.802c0,0-3.129-8.44,3.404-14.242C187.11,272.597,190.46,274.02,190.46,274.02z"/>
				<path style="opacity:0.1;fill:#FFFFFF;enable-background:new    ;" d="M249.88,294.22c0,0-22.98,26.3-38.51,28.22
					c-7.73,0.96-11.88-3.75-16.27-10.06c-4.43-6.35-9.1-14.32-17.93-19.74c0,0-3.13-8.44,3.41-14.24c2.07-1.84,3.82-2.95,5.24-3.61
					c3.08-1.43,4.64-0.77,4.64-0.77c11.68,8.07,17.22,33.36,22.5,33.11c5.27-0.25,31.04-18.33,31.04-18.33L249.88,294.22z"/>
			</g>
			<path style="opacity:0.2;enable-background:new    ;" d="M195.1,312.38c-4.43-6.35-9.1-14.32-17.93-19.74
				c0,0-3.13-8.44,3.41-14.24c2.07-1.84,3.82-2.95,5.24-3.61C189.19,282.89,195.54,299.92,195.1,312.38z"/>
		</g>
		<polygon style="fill:#B97964;" points="173.628,407.589 182.667,409.497 192.326,393.619 183.287,391.711 		"/>
		<path style="fill:#263238;" d="M184.491,405.67h-10.117c-0.341,0.002-0.636,0.239-0.71,0.572l-1.642,7.415
			c-0.14,0.664,0.284,1.316,0.948,1.456c0.089,0.019,0.18,0.028,0.27,0.027c3.273-0.053,5.657-0.254,9.767-0.254
			c2.532,0,10.17,0.265,13.665,0.265c3.496,0,3.951-3.453,2.521-3.771c-6.42-1.398-11.25-3.337-13.305-5.18
			C185.508,405.85,185.008,405.661,184.491,405.67z"/>
		<path style="fill:#407BFF;" d="M185.063,406.825c-0.079-0.021-0.138-0.088-0.148-0.17c-0.013-0.077,0.025-0.155,0.095-0.191
			c0.297-0.191,2.987-1.843,3.909-1.367c0.212,0.1,0.345,0.316,0.339,0.551c0.056,0.401-0.101,0.802-0.413,1.059
			c-0.469,0.32-1.034,0.469-1.6,0.424C186.509,407.111,185.777,407.008,185.063,406.825z M185.635,406.55
			c0.972,0.328,2.032,0.275,2.966-0.148c0.2-0.179,0.298-0.444,0.265-0.71c-0.01-0.159-0.074-0.233-0.127-0.233
			c-0.078-0.042-0.166-0.06-0.254-0.053C187.471,405.601,186.503,405.99,185.635,406.55z"/>
		<path style="fill:#407BFF;" d="M185.01,406.867c-0.06-0.04-0.096-0.108-0.095-0.18c0.011-0.116,0.212-2.511,1.176-3.294
			c0.229-0.201,0.534-0.294,0.837-0.254c0.309-0.001,0.575,0.216,0.635,0.519c0.169,0.879-1.494,2.712-2.352,3.178h-0.095
			C185.085,406.857,185.048,406.868,185.01,406.867z M186.345,403.626c-0.586,0.748-0.929,1.657-0.985,2.606
			c0.858-0.646,1.917-2.034,1.811-2.574c-0.011-0.053-0.032-0.201-0.286-0.201h-0.095
			C186.626,403.457,186.468,403.517,186.345,403.626z"/>
		<polygon style="opacity:0.2;enable-background:new    ;" points="183.287,391.711 192.326,393.619 187.338,401.808 178.299,399.9 
					"/>
		<path style="fill:#407BFF;" d="M148.76,366.806c0.487-0.021,0.985-0.053,1.493-0.095c10.223-0.847,20.943-3.506,29.196-5.996
			c8.517-2.564,14.407-4.947,14.407-4.947c1.949,11.293-16.377,41.611-16.377,41.611l14.968,0.932c0,0,41.844-48.73,24.015-67.967
			c-13.316-14.365-49.439,1.229-49.439,1.229l-49.44,0.36C117.584,331.933,113.94,368.66,148.76,366.806z"/>
		<polygon style="fill:#407BFF;" points="191.741,400.08 176.822,397.697 178.253,393.637 194.484,397.02 		"/>
		<path style="opacity:0.2;enable-background:new    ;" d="M148.76,366.806c0.487-0.021,0.985-0.053,1.493-0.095
			c10.223-0.847,20.943-3.506,29.196-5.996c-14.492-2.659-28.316-13.072-28.316-13.072L148.76,366.806z"/>
		<polygon style="fill:#B97964;" points="82.29,390.657 81.509,398.947 100.651,401.441 101.432,393.14 		"/>
		<path style="fill:#263238;" d="M82.361,400.187l0.948-10.072c0.03-0.34-0.178-0.655-0.503-0.76l-7.229-2.33
			c-0.648-0.202-1.337,0.159-1.539,0.807c-0.027,0.087-0.045,0.176-0.052,0.267c-0.254,3.264-0.277,5.656-0.662,9.748
			c-0.237,2.521-1.217,10.1-1.544,13.581c-0.328,3.48,3.068,4.258,3.518,2.864c1.994-6.26,4.377-10.888,6.404-12.761
			C82.086,401.183,82.322,400.703,82.361,400.187z"/>
		<path style="fill:#407BFF;" d="M81.158,400.648c0.028-0.077,0.101-0.129,0.183-0.132c0.078-0.006,0.152,0.04,0.181,0.113
			c0.162,0.313,1.555,3.147,0.994,4.02c-0.12,0.202-0.347,0.314-0.58,0.286c-0.404,0.018-0.789-0.176-1.016-0.511
			c-0.274-0.497-0.37-1.073-0.272-1.632C80.738,402.061,80.909,401.342,81.158,400.648z M81.378,401.244
			c-0.418,0.937-0.464,1.997-0.13,2.967c0.159,0.215,0.414,0.339,0.682,0.33c0.159,0.004,0.239-0.052,0.244-0.105
			c0.049-0.074,0.076-0.16,0.076-0.248C82.15,403.16,81.854,402.161,81.378,401.244z"/>
		<path style="fill:#407BFF;" d="M81.12,400.592c0.045-0.056,0.116-0.086,0.188-0.078c0.115,0.021,2.48,0.446,3.17,1.479
			c0.179,0.247,0.243,0.56,0.175,0.857c-0.028,0.307-0.269,0.552-0.576,0.584c-0.891,0.086-2.56-1.741-2.944-2.639l0.009-0.095
			C81.124,400.667,81.116,400.629,81.12,400.592z M84.223,402.224c-0.69-0.653-1.563-1.081-2.502-1.225
			c0.563,0.915,1.845,2.1,2.393,2.045c0.054-0.006,0.203-0.013,0.227-0.266l0.009-0.095
			C84.364,402.52,84.319,402.357,84.223,402.224z"/>
		<polygon style="opacity:0.2;enable-background:new    ;" points="101.422,393.139 100.64,401.44 90.77,400.149 91.552,391.848 		
			"/>
		<path style="fill:#407BFF;" d="M153.654,337.314c3.04,4.502,15.991,59.586-2.317,72.559c-13.446,9.528-57.444-6.262-57.444-6.262
			l0.941-13.793c0,0,35.465,5.449,39.702,1.766c4.237-3.683-15.016-37.244-16.029-46.26
			C117.494,336.307,153.654,337.314,153.654,337.314z"/>
		<polygon style="fill:#407BFF;" points="96.735,388.768 95.625,405.407 91.451,404.354 93.331,387.881 		"/>
		<g>
			<path style="fill:#263238;" d="M117.584,331.933l49.09,3.528c0,0,7.617-46.611,23.782-61.442c0,0-2.839-3.358-8.348-6.875
				c-5.127-3.284-12.574-6.706-22.193-7.68c-5.329-0.54-11.324-0.318-17.967,1.102C141.949,260.565,119.702,286.381,117.584,331.933
				z"/>
			<path style="opacity:0.2;fill:#FFFFFF;enable-background:new    ;" d="M190.46,274.02c-7.1,6.52-12.56,19.18-16.45,31.32
				c-1.68,5.27-3.07,10.45-4.16,14.98c-2.14,8.78-3.18,15.14-3.18,15.14l-49.09-3.53c0.89-19.04,5.29-34.64,10.12-46.33
				c1.06-2.58,2.15-4.97,3.22-7.16c1.91-3.91,3.77-7.2,5.4-9.86c0.73-1.17,1.41-2.22,2.03-3.14c2.17-3.22,3.6-4.88,3.6-4.88
				c6.64-1.41,12.64-1.64,17.97-1.1c-3.05,3.59,0.6,10.91,12.78,12.44c6.98,0.88,9.78-1.89,9.41-4.76
				C187.62,270.66,190.46,274.02,190.46,274.02z"/>
		</g>
		<path style="fill:#B97964;" d="M160.765,260.358c-1.512,5.428,14.116,13.05,19.591,7.628c-2.954-2.235-3.727-4.567-3.359-6.839
			c0.216-1.322,0.825-2.618,1.614-3.867c0.407-0.66,0.874-1.3,1.356-1.92l-6.644-13.772
			C171.953,247.654,168.876,261.328,160.765,260.358z"/>
		<path style="opacity:0.2;enable-background:new    ;" d="M173.144,248.028c-2.999,6.753,1.419,11.373,3.852,13.118
			c0.216-1.322,0.825-2.618,1.614-3.867L173.144,248.028z"/>
		<path style="fill:#B97964;" d="M248.422,286.446c1.228,0.366,8.633-2.773,10.161-2.21c1.677,0.618,5.082,8.669,4.467,9.856
			c-0.795,1.534-13.207,1.026-14.628,0.266c-1.42-0.761-4.422-5.175-4.422-5.175L248.422,286.446z"/>
		<g>
			<path style="fill:#263238;" d="M194.041,230.185c0,0,2.018,9.335-3.777,14.132c-5.794,4.797-7.17-16.522-7.17-16.522
				L194.041,230.185z"/>
			<path style="fill:#B97964;" d="M193.001,247.784c-0.236,1.099-0.533,2.137-0.865,3.092c-0.144,0.392-0.296,0.765-0.475,1.128
				c-1.334,2.774-3.625,4.791-6.257,5.81c-3.983,1.55-8.717,0.829-11.929-2.935c-0.098-0.099-0.178-0.206-0.271-0.318
				c-3.713-4.625-3.099-9.453-2.724-17.696c0.059-1.775,0.518-3.508,1.372-5.065c2.973-5.476,9.827-7.505,15.294-4.528
				C193.818,230.832,194.58,240.562,193.001,247.784z"/>
			<path style="opacity:0.3;enable-background:new    ;" d="M193.001,247.784c-0.236,1.099-0.533,2.137-0.865,3.092
				c-0.144,0.392-0.296,0.765-0.475,1.128c-1.334,2.774-3.625,4.791-6.257,5.81c-3.983,1.55-8.717,0.829-11.929-2.935
				c-1.107-3.326-1.925-10.409,0.37-14.547c0,0,2.834,7.985,3.629,8.225c0.785,0.244,0.91-2.62,5.042-0.661
				C186.646,249.855,187.915,250.476,193.001,247.784z"/>
			<path style="fill:#263238;" d="M182.692,240.47c-0.116,0.657,0.222,1.244,0.665,1.29c0.444,0.046,0.846-0.464,0.92-1.129
				c0.074-0.665-0.232-1.246-0.666-1.29C183.178,239.297,182.768,239.795,182.692,240.47z"/>
			<path style="fill:#263238;" d="M190.243,241.263c-0.116,0.657,0.232,1.246,0.665,1.29c0.433,0.044,0.846-0.464,0.92-1.129
				c0.074-0.664-0.232-1.246-0.665-1.29C190.73,240.09,190.311,240.63,190.243,241.263z"/>
			<path style="fill:#A24E3F;" d="M187.809,241.34c0.581,2.126,1.452,4.162,2.591,6.05c-0.999,0.567-2.197,0.663-3.273,0.262
				L187.809,241.34z"/>
			<path style="fill:#263238;" d="M180.606,237.779c0.143,0.036,0.294-0.007,0.396-0.113c0.668-0.748,1.649-1.137,2.648-1.05
				c0.213,0.038,0.417-0.104,0.455-0.317c0.038-0.213-0.104-0.417-0.317-0.455c0,0-0.001,0-0.002,0
				c-1.26-0.143-2.511,0.334-3.356,1.28c-0.152,0.154-0.152,0.402,0.002,0.554c0.002,0.002,0.004,0.004,0.007,0.007
				C180.49,237.725,180.546,237.756,180.606,237.779z"/>
			<path style="fill:#263238;" d="M185.678,250.997L185.678,250.997c-1.971,0.09-3.861-0.786-5.066-2.348
				c-0.063-0.096-0.038-0.225,0.056-0.29c0.089-0.066,0.215-0.047,0.281,0.043c0.003,0.004,0.006,0.009,0.009,0.013
				c1.144,1.422,2.891,2.221,4.715,2.158c0.111-0.008,0.207,0.076,0.215,0.187c0.001,0.007,0.001,0.015,0,0.022
				c0.008,0.111-0.076,0.207-0.187,0.215C185.693,250.997,185.686,250.997,185.678,250.997z"/>
			<path style="fill:#263238;" d="M193.761,239c0.07,0.037,0.151,0.051,0.229,0.041c0.205-0.07,0.313-0.294,0.243-0.498
				c-0.001-0.003-0.002-0.005-0.003-0.008c-0.406-1.206-1.373-2.139-2.593-2.501c-0.211-0.049-0.421,0.082-0.471,0.292
				c0,0,0,0.001,0,0.001c-0.044,0.21,0.086,0.418,0.293,0.471l0,0c0.954,0.314,1.704,1.06,2.022,2.013
				C193.543,238.912,193.645,238.981,193.761,239z"/>
			<path style="fill:#263238;" d="M166.814,244.67c-1.447-7.337-0.154-15.195,1.742-17.352c1.895-2.157,11.45,3.411,11.45,3.411
				c-2.228-0.586-4.464,1.286-3.749,3.523c0.998,3.12-1.005,7.757-3.455,9.511c0,0,0.003-1.327-1.131-1.077
				c-1.134,0.25-1.219,7.156,0.771,10.566C172.442,253.252,168.261,252.007,166.814,244.67z"/>
			<path style="fill:#B97964;" d="M166.191,243.218c0.715,1.952,2.175,3.54,4.059,4.417c2.503,1.144,4.181-0.996,3.849-3.584
				c-0.317-2.297-1.98-5.734-4.673-5.764C166.734,238.258,165.344,240.811,166.191,243.218z"/>
			<path style="fill:#263238;" d="M194.041,230.185c0,0-2.543,2.953-9.93,2.258c0,0,3.204-0.295,4.965-1.076
				c0,0-9.902,1.373-14.638-0.407c-4.735-1.78-5.883-3.642-5.883-3.642s0.814-4.963,11.761-4.369
				C191.264,223.542,194.742,228.322,194.041,230.185z"/>
			<path style="fill:#407BFF;" d="M167.985,248.449c0,0-0.128-13.574,9.12-20.038c7.182-5.02,14.53-3.26,16.593-0.117
				c0,0,1.793-2.661-1.636-5.472c-1.206-0.988-3.397-1.719-3.397-1.719s-11.547-7.551-22.957-1.072
				c-11.41,6.479-2.932,11.819-2.932,11.819s-0.926,8.151,1.989,10.221C164.765,242.071,165.906,248.321,167.985,248.449z"/>
		</g>
		<g>
			<polygon style="fill:#407BFF;" points="253.97,281.989 251.215,282.623 266.241,310.642 267.813,310.642 			"/>
			<path style="fill:#407BFF;" d="M253.972,280.707c0,0-3.367,0.718-4.093,1.282c-0.725,0.564-0.769,1.557,2.046,1.29
				C254.74,283.012,256.087,280.839,253.972,280.707z"/>
			<path style="opacity:0.2;fill:#FFFFFF;" d="M253.972,280.707c0,0-3.367,0.718-4.093,1.282c-0.725,0.564-0.769,1.557,2.046,1.29
				C254.74,283.012,256.087,280.839,253.972,280.707z"/>
		</g>
		<g>
			<g>
				<path style="fill:#407BFF;" d="M157.538,259.641c0,0,3.639,15.672,16.121,17.711c9.029,1.475,9.435-9.49,9.435-9.49
					s1.176-1.02,2.793,0.176c1.618,1.196,3.863,16.68-8.715,19.768c-12.578,3.088-18.976-6.293-23.153-15.012
					c-5.237-10.931-5.086-12.805-3.306-14.215C152.495,257.169,157.823,258.096,157.538,259.641z"/>
				<path style="opacity:0.5;fill:#FFFFFF;" d="M186.32,279.34c-1.05,3.24-3.23,6.31-7.32,7.89c-0.57,0.23-1.18,0.42-1.83,0.58
					c-12.58,3.08-18.97-6.3-23.15-15.02c-5.24-10.93-5.09-12.8-3.31-14.21c1.78-1.41,7.11-0.48,6.83,1.06
					c0,0,3.64,15.67,16.12,17.71c2.08,0.34,3.7,0.02,4.97-0.68c4.22-2.31,4.46-8.81,4.46-8.81s1.15-0.99,2.73,0.13
					c0.02,0.02,0.05,0.03,0.07,0.05C186.83,268.73,187.98,274.23,186.32,279.34z"/>
			</g>
			<path style="opacity:0.1;enable-background:new    ;" d="M186.32,279.34c-1.05,3.24-3.23,6.31-7.32,7.89
				c0.04-3.67-0.14-7.38-0.37-10.56c4.22-2.31,4.46-8.81,4.46-8.81s1.15-0.99,2.73,0.13C186.87,271.43,186.88,275.43,186.32,279.34z
				"/>
			<g>
				<path style="fill:#407BFF;" d="M177.384,264.471c0,0,3.398,1.141,3.991,5.375c0.592,4.234-4.743,45.674-4.202,49.927
					c0.541,4.253,0.64,4.49,0.64,4.49l7.121-1.696c0,0-1.978-7.937-0.89-16.047c1.088-8.11,3.659-29.571,1.78-34.615
					C183.945,266.861,181.293,263.185,177.384,264.471z"/>
				<path style="opacity:0.5;fill:#FFFFFF;" d="M177.384,264.471c0,0,3.398,1.141,3.991,5.375
					c0.592,4.234-4.743,45.674-4.202,49.927c0.541,4.253,0.64,4.49,0.64,4.49l7.121-1.696c0,0-1.978-7.937-0.89-16.047
					c1.088-8.11,3.659-29.571,1.78-34.615C183.945,266.861,181.293,263.185,177.384,264.471z"/>
			</g>
		</g>
		<g>
			<path style="fill:#407BFF;" d="M217.801,287.103l3.086-32.478c0.055-0.576,0.539-1.016,1.117-1.016l0,0
				c0.632,0,1.14,0.523,1.122,1.155l-0.939,32.34H217.801z"/>
			<polygon style="fill:#263238;" points="216.186,254.587 227.989,254.587 227.989,258.579 215.462,258.579 			"/>
		</g>
		<path style="fill:#B97964;" d="M210.067,274.868c0,0,11.724-8.091,13.57-8.345c1.846-0.255,2.549,8.58,1.187,12.536
			c-0.793,2.303-5.501,2.215-10.399,3.085L210.067,274.868z"/>
		<polygon style="opacity:0.5;fill:#FFFFFF;" points="191.741,400.08 176.822,397.697 178.253,393.637 194.484,397.02 		"/>
		<polygon style="opacity:0.5;fill:#FFFFFF;" points="96.735,388.768 95.625,405.407 91.451,404.354 93.331,387.881 		"/>
		<path style="opacity:0.2;enable-background:new    ;" d="M145.57,287.81c0,0-8.67-3.53-14.65-9.37c1.91-3.91,3.77-7.2,5.4-9.86
			c0.73-1.17,1.41-2.22,2.03-3.14L145.57,287.81z"/>
		<path style="opacity:0.2;enable-background:new    ;" d="M174.01,305.34c-1.68,5.27-3.07,10.45-4.16,14.98
			c-8.29-3.33-15.83-18.22-15.83-18.22L174.01,305.34z"/>
		<g>
			<path style="fill:#263238;" d="M143.264,260.295c7.613-1.28,21.699,37.631,28.232,38.422c6.533,0.791,38.57-23.85,38.57-23.85
				l4.358,7.276c0,0-28,29.981-41.56,33.035c-13.561,3.054-39.04-36.016-38.401-43.461
				C135.103,264.272,137.806,261.213,143.264,260.295z"/>
			<path style="opacity:0.15;fill:#FFFFFF;enable-background:new    ;" d="M143.264,260.295c7.613-1.28,21.699,37.631,28.232,38.422
				c6.533,0.791,38.57-23.85,38.57-23.85l4.358,7.276c0,0-28,29.981-41.56,33.035c-13.561,3.054-39.04-36.016-38.401-43.461
				C135.103,264.272,137.806,261.213,143.264,260.295z"/>
		</g>
	</g>
</g>
<g id="Tools">
	<g>
		<g>
			<polygon style="fill:#263238;" points="385.75,351.994 388.759,379.423 393.182,379.423 389.466,350.994 			"/>
			<polygon style="opacity:0.4;fill:#FFFFFF;" points="385.75,351.994 388.759,379.423 393.182,379.423 389.466,350.994 			"/>
		</g>
		<g>
			<path style="fill:#407BFF;" d="M421.35,352.926l-4.41-1.61c-2.07-0.76-4.31,0.64-4.53,2.83l-0.39,3.79l-2.06,20.29h5.53
				l0.18-2.78l0.02-2.09l1.4-0.79v-4.35l1.37-1.27l-0.59-1.74l1.23-0.9l3.08-2.25l1.29-5.12
				C423.9,355.256,422.98,353.526,421.35,352.926z M421.51,358.326c-1.32,0.33-4.75,0.59-5.54,0.39c-1.33-0.33-1.93-3.86,0.29-3.38
				c2.22,0.48,4.93-0.05,5.25-0.05C421.84,355.286,422.84,357.996,421.51,358.326z"/>
			<path style="opacity:0.7;fill:#FFFFFF;" d="M417.87,365.206l0.59,1.74l-1.37,1.27v4.35l-1.4,0.79l-0.02,2.09l-0.18,2.78h-5.53
				l2.06-20.29c0,0,1.715,5.142,3.145,6.085c0.824,0.543,3.935,0.285,3.935,0.285L417.87,365.206z"/>
		</g>
		<g>
			<path style="fill:#407BFF;" d="M396.901,378.227l2.094-19.901c0.146-1.389,1.508-2.312,2.852-1.932l0,0
				c1.101,0.311,1.794,1.398,1.612,2.527l-3.119,19.306H396.901z"/>
			<path style="opacity:0.2;enable-background:new    ;" d="M396.901,378.227l2.094-19.901c0.146-1.389,1.508-2.312,2.852-1.932l0,0
				c1.101,0.311,1.794,1.398,1.612,2.527l-3.119,19.306H396.901z"/>
		</g>
		<polygon style="fill:#407BFF;" points="422.024,377.539 381.323,377.539 385.323,415.151 418.024,415.151 		"/>
		<polygon style="opacity:0.2;enable-background:new    ;" points="422.024,377.539 381.323,377.539 385.323,415.151 
			418.024,415.151 		"/>
		<rect x="379.124" y="375.448" style="fill:#407BFF;" width="45.099" height="5.557"/>
	</g>
</g>
</svg>
